<?xml version="1.0" encoding="UTF-8"?>
<svg id="artwork" xmlns="http://www.w3.org/2000/svg" viewBox="0 0 1000 1000">
  <path d="M429.67,80c27.9,0,54.13,10.87,73.86,30.6,19.73,19.73,30.59,45.96,30.59,73.86s-10.87,54.14-30.59,73.87l-207.52,207.54c-4.59,4.59-7.12,10.77-7.12,17.39,0,6.62,2.53,12.8,7.12,17.39,4.59,4.59,10.76,7.12,17.38,7.12s12.8-2.53,17.39-7.12l113.82-113.83c3.42,39.28,20.3,76.76,33.74,103.17,35.58,69.91,38.32,116.09,8.87,149.69l-8.71,8.71c-44.03,44.03-102.66,68.28-165.11,68.28s-121.08-24.25-165.11-68.28c-91.04-91.05-91.04-239.19,0-330.24l207.53-207.54c19.73-19.73,45.96-30.6,73.86-30.6" style="fill: #05a6a6;"/>
  <path d="M686.62,241.61c62.44,0,121.08,24.25,165.11,68.28,44.03,44.03,68.28,102.67,68.28,165.12,0,62.45-24.25,121.09-68.28,165.12l-249.19,249.2c-48.7,48.7-115.46,32.27-147.72,0-40.73-40.73-40.73-107,0-147.73l249.19-249.2c4.59-4.59,7.12-10.77,7.12-17.39,0-6.62-2.53-12.8-7.12-17.38-4.59-4.59-10.77-7.13-17.39-7.13s-12.8,2.53-17.39,7.12l-114.03,114.03c-3.32-39.43-20.27-77.08-33.77-103.62-34.63-68.05-38.18-113.29-11.46-146.61l11.54-11.54c44.03-44.03,102.66-68.28,165.11-68.28" style="fill: #013440;"/>
</svg>