<?xml version="1.0"?>
<svg width="38" height="38" xmlns="http://www.w3.org/2000/svg" xmlns:svg="http://www.w3.org/2000/svg">
 <defs>
  <clipPath id="clip0_307_8222">
   <rect fill="white" height="38" id="svg_1" style="--darkreader-inline-fill: #e8e6e3;" width="227"/>
  </clipPath>
 </defs>
 <g class="layer">
  <title>Layer 1</title>
  <g clip-path="url(#clip0_307_8222)" id="svg_2">
   <path d="m28,1l-18,0c-4.97,0 -9,4.03 -9,9l0,18c0,4.97 4.03,9 9,9l18,0c4.97,0 9,-4.03 9,-9l0,-18c0,-4.97 -4.03,-9 -9,-9z" fill="black" id="svg_3" style="--darkreader-inline-fill: #000000;"/>
   <path d="m28,2.25c4.27,0 7.75,3.48 7.75,7.75l0,18c0,4.27 -3.48,7.75 -7.75,7.75l-18,0c-4.27,0 -7.75,-3.48 -7.75,-7.75l0,-18c0,-4.27 3.48,-7.75 7.75,-7.75l18,0zm0,-1.25l-18,0c-4.97,0 -9,4.03 -9,9l0,18c0,4.97 4.03,9 9,9l18,0c4.97,0 9,-4.03 9,-9l0,-18c0,-4.97 -4.03,-9 -9,-9z" fill="#4D4D4D" id="svg_4" style="--darkreader-inline-fill: #3a3f41;"/>
   <path d="m21.38,27.94c-1.66,0 -3,-1.35 -3,-3l0,-4.75c0,-0.35 0.28,-0.63 0.62,-0.63c0.34,0 0.63,0.28 0.63,0.63l0,4.75c0,0.96 0.78,1.75 1.75,1.75c0.96,0 1.75,-0.79 1.75,-1.75l0,-4.75c0,-1.66 1.34,-3 3,-3c1.65,0 3,1.34 3,3l0,2.37c0,0.35 -0.29,0.63 -0.63,0.63c-0.34,0 -0.62,-0.28 -0.62,-0.63l0,-2.37c0,-0.97 -0.79,-1.75 -1.75,-1.75c-0.97,0 -1.75,0.78 -1.75,1.75l0,4.75c0,1.65 -1.35,3 -3,3z" fill="white" id="svg_5" style="--darkreader-inline-fill: #e8e6e3;"/>
   <path d="m11.88,20.81c-1.66,0 -3,-1.34 -3,-3l0,-2.37c0,-0.35 0.28,-0.63 0.62,-0.63c0.34,0 0.63,0.28 0.63,0.63l0,2.37c0,0.97 0.78,1.75 1.75,1.75c0.96,0 1.75,-0.78 1.75,-1.75l0,-4.75c0,-1.65 1.34,-3 3,-3c1.65,0 3,1.35 3,3l0,3.57c0,0.34 -0.29,0.62 -0.63,0.62c-0.34,0 -0.62,-0.28 -0.62,-0.62l0,-3.57c0,-0.96 -0.79,-1.75 -1.75,-1.75c-0.97,0 -1.75,0.79 -1.75,1.75l0,4.75c0,1.66 -1.35,3 -3,3z" fill="#EE0000" id="svg_6" style="--darkreader-inline-fill: #ff2525;"/>
  </g>
 </g>
</svg>