<svg width="19" height="19" viewBox="0 0 19 19" fill="none" xmlns="http://www.w3.org/2000/svg">
<path d="M17.2188 9.5C17.2188 7.45286 16.4055 5.48957 14.958 4.04202C13.5104 2.59447 11.5471 1.78125 9.5 1.78125C7.45286 1.78125 5.48957 2.59447 4.04202 4.04202C2.59447 5.48957 1.78125 7.45286 1.78125 9.5C1.78125 11.5471 2.59447 13.5104 4.04202 14.958C5.48957 16.4055 7.45286 17.2188 9.5 17.2188C11.5471 17.2188 13.5104 16.4055 14.958 14.958C16.4055 13.5104 17.2188 11.5471 17.2188 9.5ZM0 9.5C0 6.98044 1.00089 4.56408 2.78249 2.78249C4.56408 1.00089 6.98044 0 9.5 0C12.0196 0 14.4359 1.00089 16.2175 2.78249C17.9991 4.56408 19 6.98044 19 9.5C19 12.0196 17.9991 14.4359 16.2175 16.2175C14.4359 17.9991 12.0196 19 9.5 19C6.98044 19 4.56408 17.9991 2.78249 16.2175C1.00089 14.4359 0 12.0196 0 9.5ZM7.125 5.9375H11.875C12.5318 5.9375 13.0625 6.46816 13.0625 7.125V11.875C13.0625 12.5318 12.5318 13.0625 11.875 13.0625H7.125C6.46816 13.0625 5.9375 12.5318 5.9375 11.875V7.125C5.9375 6.46816 6.46816 5.9375 7.125 5.9375Z" fill="black"/>
</svg>
