<?xml version="1.0" encoding="UTF-8"?>
<svg id="artwork" xmlns="http://www.w3.org/2000/svg" viewBox="0 0 1000 267">
  <g>
    <path d="M285.19,133.12h0c-5.31-4.83-12.73-7.76-22.06-8.7-5.5-.56-9.72-1.54-12.55-2.9-2.63-1.27-4.42-2.72-5.32-4.33-.96-1.7-1.42-3.41-1.42-5.25,0-3.55,1.39-6,4.38-7.7,3.33-1.9,7.58-2.83,12.66-2.76,2.82,0,5.29.38,7.32,1.14,2.02.75,3.81,1.79,5.29,3.08,1.49,1.3,2.78,2.92,3.86,4.87,1.12,1.94,2.81,3.27,5.02,3.98,2.29.73,4.56.45,6.59-.83,1.84-1.19,2.97-2.96,3.24-5.1.26-2.01-.29-4.1-1.61-6.17-1.98-3.24-4.34-6.09-7.04-8.47-2.73-2.41-5.97-4.33-9.61-5.69-3.64-1.36-7.92-2.05-12.71-2.05-6.06,0-11.66.95-16.63,2.83-5.1,1.93-9.22,4.8-12.23,8.54-3.09,3.84-4.65,8.54-4.65,13.99,0,7.39,2.94,13.66,8.75,18.65,5.63,4.84,13.4,7.77,23.06,8.71,6.47.68,11.11,2.4,13.79,5.11,2.66,2.69,3.95,5.61,3.95,8.93,0,2.55-.72,4.61-2.2,6.3-1.59,1.81-3.73,3.22-6.35,4.19-2.73,1.01-5.78,1.53-9.05,1.53-2.93,0-5.76-.45-8.4-1.33-2.64-.88-4.9-2.03-6.73-3.43-1.74-1.32-2.98-2.76-3.7-4.26-.89-1.87-2.22-3.3-3.97-4.25-1.81-.98-3.7-1.27-5.56-.85-2.55.51-4.41,1.75-5.55,3.7-1.17,2.01-1.23,4.26-.17,6.52,1.63,3.81,4.21,7.21,7.67,10.11,3.41,2.85,7.45,5.1,12.02,6.67,4.55,1.57,9.39,2.36,14.39,2.36,4.21,0,8.35-.55,12.3-1.65,4.01-1.11,7.64-2.83,10.8-5.11,3.21-2.31,5.8-5.22,7.71-8.63,1.94-3.47,2.92-7.58,2.92-12.21,0-8.02-2.76-14.6-8.2-19.55Z" style="fill: #013440;"/>
    <path d="M331.41,163.24h-3.79c-1.67,0-3-.68-4.19-2.14-1.29-1.59-1.92-3.54-1.92-5.98v-25.19h7.11c2.17,0,3.99-.66,5.41-1.97,1.45-1.34,2.21-3.1,2.21-5.09,0-2.14-.77-3.98-2.21-5.31-1.42-1.31-3.23-1.97-5.4-1.97h-7.11v-13.7c0-2.28-.76-4.2-2.26-5.7-1.5-1.5-3.42-2.26-5.69-2.26s-4.2.76-5.7,2.26c-1.5,1.5-2.26,3.41-2.26,5.7v13.7h-2.76c-2.17,0-3.99.66-5.4,1.97-1.45,1.34-2.21,3.17-2.21,5.32,0,2,.77,3.76,2.21,5.09,1.41,1.31,3.23,1.97,5.41,1.97h2.76v25.19c0,4.46.95,8.55,2.84,12.15,1.9,3.63,4.54,6.54,7.86,8.66,3.35,2.14,7.16,3.22,11.32,3.22h2.01c2.5,0,4.62-.72,6.28-2.13,1.75-1.49,2.68-3.5,2.68-5.83s-.67-4.11-2-5.6c-1.38-1.54-3.17-2.35-5.17-2.35Z" style="fill: #013440;"/>
    <path d="M389.12,115.26h0c-2.62-1.73-6.31-2.57-11.3-2.57s-9.37,1.15-13.43,3.43c-1.18.66-2.3,1.4-3.35,2.2-.34-1.13-.91-2.09-1.68-2.87-1.39-1.39-3.36-2.09-5.86-2.09s-4.38.72-5.81,2.15c-1.42,1.42-2.15,3.38-2.15,5.81v49.88c0,2.52.73,4.51,2.18,5.89,1.42,1.37,3.36,2.06,5.78,2.06s4.5-.73,5.9-2.18c1.37-1.42,2.06-3.36,2.06-5.77v-32.58c0-2.8.85-5.03,2.61-6.82,1.85-1.88,4.47-3.2,7.79-3.92,3.45-.74,7.44-.67,11.8.22,1.28.3,2.51.34,3.64.13,1.25-.23,2.36-.77,3.32-1.62,1.01-.89,1.69-2.11,2.02-3.63.44-1.75.54-5.03-3.51-7.71Z" style="fill: #013440;"/>
    <path d="M443.12,117.12h0c-4.53-2.79-9.98-4.2-16.2-4.2s-11.93,1.44-16.82,4.28c-4.89,2.85-8.78,6.83-11.54,11.84-2.75,4.98-4.15,10.8-4.15,17.27s1.48,12.22,4.4,17.21c2.92,5.01,7.02,8.98,12.18,11.82,5.13,2.82,11.05,4.26,17.6,4.26,3.67,0,7.54-.68,11.53-2.02,4-1.35,7.41-3.13,10.11-5.27,2.39-1.83,2.8-3.99,2.72-5.48-.11-1.99-1.06-3.78-2.85-5.36-1.42-1.2-3.11-1.79-5.01-1.73-1.79.05-3.45.64-4.98,1.76-1.29.97-3.05,1.85-5.23,2.62-2.15.76-4.27,1.15-6.29,1.15-3.81,0-7.2-.83-10.1-2.48-2.89-1.64-5.18-3.9-6.82-6.72-.63-1.08-1.14-2.24-1.53-3.46h39.43c2.12,0,3.91-.69,5.33-2.06,1.43-1.37,2.18-3.18,2.18-5.23,0-6.21-1.19-11.8-3.53-16.61-2.39-4.89-5.9-8.79-10.43-11.58ZM426.93,127.26c3.23,0,5.98.73,8.18,2.18,2.26,1.49,3.96,3.45,5.19,6.02.52,1.08.94,2.24,1.26,3.46h-31.25c.28-.89.62-1.75,1.02-2.56,1.37-2.85,3.33-5.02,5.97-6.66,2.62-1.62,5.86-2.44,9.63-2.44Z" style="fill: #013440;"/>
    <path d="M511.49,117.32h0c-4.96-2.92-10.62-4.4-16.83-4.4s-11.88,1.48-16.88,4.4c-4.99,2.92-8.99,6.94-11.9,11.96-2.92,5.03-4.39,10.76-4.39,17.04s1.35,11.94,4.02,16.91c2.68,5,6.39,9.01,11.04,11.94,4.68,2.94,10.02,4.44,15.88,4.44s11.2-1.49,15.88-4.44c1.19-.75,2.33-1.58,3.4-2.47.27,1.65,1.01,3.07,2.19,4.26,1.53,1.54,3.47,2.31,5.75,2.31s4.22-.78,5.75-2.31c1.53-1.54,2.31-3.47,2.31-5.75v-24.88c0-6.27-1.48-12-4.39-17.04-2.91-5.02-6.89-9.04-11.84-11.96ZM512.04,146.31c0,3.52-.77,6.73-2.28,9.53-1.52,2.81-3.55,4.97-6.18,6.58h0c-2.62,1.6-5.53,2.38-8.91,2.38s-6.21-.78-8.87-2.39c-2.64-1.6-4.76-3.82-6.29-6.59-1.54-2.79-2.33-5.99-2.33-9.51s.78-6.83,2.33-9.62c1.53-2.78,3.65-5,6.29-6.59,2.66-1.61,5.56-2.39,8.87-2.39s6.29.78,8.91,2.38c2.64,1.62,4.66,3.77,6.18,6.58,1.51,2.8,2.28,6.04,2.28,9.64Z" style="fill: #013440;"/>
    <path d="M616.68,115.91h0c-3.62-2.06-7.81-3.1-12.44-3.1-5.22,0-9.94,1.15-14.04,3.42-1.99,1.1-3.79,2.44-5.38,3.98-1.53-1.73-3.3-3.17-5.3-4.31-3.62-2.06-7.81-3.1-12.44-3.1s-9.17,1.17-12.95,3.47c-.48.29-.95.6-1.41.93-.32-.53-.7-1.02-1.15-1.47-1.5-1.5-3.45-2.26-5.81-2.26s-4.19.75-5.72,2.23c-1.55,1.5-2.34,3.47-2.34,5.84v49.66c0,2.28.78,4.22,2.31,5.75,1.53,1.54,3.47,2.31,5.75,2.31s4.33-.79,5.84-2.34c1.48-1.53,2.23-3.46,2.23-5.72v-31.47c0-3.57,1.03-6.4,3.15-8.64,2.08-2.2,4.65-3.27,7.87-3.27s5.51.89,7.37,2.72c1.83,1.8,2.75,4.74,2.75,8.74v31.91c0,2.28.78,4.22,2.31,5.75,1.53,1.54,3.47,2.31,5.75,2.31s4.33-.79,5.84-2.34c1.48-1.53,2.23-3.46,2.23-5.72v-31.47c0-3.58,1.01-6.41,3.1-8.65,2.04-2.19,4.59-3.26,7.8-3.26s5.51.89,7.37,2.72c1.83,1.8,2.75,4.74,2.75,8.74v31.91c0,2.28.78,4.22,2.31,5.75,1.53,1.54,3.47,2.32,5.75,2.32s4.33-.79,5.84-2.34c1.48-1.53,2.23-3.46,2.23-5.72v-31.91c0-5.48-1.01-10.25-2.99-14.18-2.03-4.02-4.92-7.11-8.59-9.19Z" style="fill: #013440;"/>
    <path d="M680.73,142.99h0c-3.42-1.81-8.09-3.31-13.86-4.47-3.85-.78-6.79-1.59-8.72-2.38-2.13-.87-2.85-1.63-3.1-2.01-.45-.69-.67-1.45-.67-2.32s.25-1.88,2.08-2.78c1.93-.95,4.37-1.43,7.27-1.43,2.57,0,4.85.3,6.77.9,1.79.56,3.5,1.61,5.11,3.15,1.45,1.35,3.24,2.23,5.32,2.61,2.27.41,4.29.02,6.01-1.16l.08-.06c1.74-1.31,2.73-3.06,2.84-5.06.11-1.92-.57-3.74-2-5.4-2.47-3.04-5.82-5.44-9.95-7.14-4.06-1.67-8.76-2.52-13.96-2.52-4.05,0-7.99.66-11.72,1.97-3.86,1.36-7.08,3.45-9.58,6.24-2.62,2.93-3.95,6.64-3.95,11.01,0,5.01,1.98,9.29,5.88,12.72,3.74,3.29,9.45,5.66,17.5,7.25,6.74,1.21,9.7,2.62,11,3.58,2.06,1.54,2.26,2.92,2.23,3.82-.03.89-.31,2.23-2.4,3.53-1.88,1.17-4.78,1.76-8.62,1.76-3.08,0-5.89-.55-8.36-1.64-2.47-1.08-4.24-2.22-5.3-3.41-1.42-1.52-3.16-2.43-5.17-2.69-2.11-.27-4.19.41-6.15,1.98-1.76,1.35-2.83,3.19-3.09,5.34-.27,2.22.43,4.29,2.02,5.99l.05.05c2.69,2.69,6.46,4.93,11.19,6.64,4.66,1.69,9.8,2.54,15.26,2.54s10.39-.9,14.22-2.67c3.92-1.82,6.95-4.31,9.02-7.43,2.08-3.13,3.13-6.69,3.13-10.57,0-3.41-.83-6.48-2.48-9.12-1.63-2.62-4.28-4.91-7.88-6.81Z" style="fill: #013440;"/>
    <path d="M771.18,87.25c-2.26,0-4.21.77-5.78,2.29-1.59,1.54-2.4,3.52-2.4,5.89v29.65h-47.03v-29.65c0-2.35-.78-4.33-2.31-5.87-1.54-1.53-3.51-2.31-5.86-2.31s-4.21.77-5.78,2.29c-1.59,1.54-2.4,3.52-2.4,5.89v75.55c0,2.28.8,4.23,2.37,5.81,1.57,1.57,3.53,2.37,5.81,2.37s4.35-.81,5.89-2.4c1.52-1.57,2.28-3.51,2.28-5.78v-30.88h47.03v30.88c0,2.28.8,4.24,2.37,5.81,1.57,1.57,3.53,2.37,5.81,2.37s4.38-.84,5.87-2.43c1.46-1.57,2.2-3.5,2.2-5.75v-75.55c0-2.34-.75-4.3-2.23-5.84-1.5-1.55-3.47-2.34-5.83-2.34Z" style="fill: #013440;"/>
    <path d="M846.17,113.25c-2.27,0-4.19.75-5.72,2.23-1.55,1.5-2.34,3.47-2.34,5.84v31.47c0,2.21-.59,4.14-1.81,5.91-1.27,1.84-2.94,3.27-5.09,4.36-2.14,1.09-4.65,1.64-7.46,1.64-2.97,0-5.66-.58-8-1.71-2.26-1.1-4.01-2.76-5.34-5.07-1.34-2.34-2.03-5.41-2.03-9.14v-27.45c0-2.28-.78-4.21-2.31-5.75-1.54-1.53-3.47-2.31-5.75-2.31s-4.22.78-5.75,2.31c-1.54,1.53-2.31,3.47-2.31,5.75v27.45c0,6.55,1.28,12.19,3.81,16.77,2.56,4.63,6.1,8.19,10.54,10.59,4.39,2.37,9.4,3.58,14.91,3.58s10.24-1.19,14.48-3.53c.96-.53,1.89-1.11,2.77-1.75.38.89.94,1.69,1.65,2.41,1.53,1.54,3.47,2.32,5.75,2.32s4.33-.79,5.84-2.34c1.48-1.53,2.23-3.46,2.23-5.72v-49.77c0-2.35-.76-4.31-2.26-5.81-1.5-1.5-3.45-2.26-5.81-2.26Z" style="fill: #013440;"/>
    <path d="M929.55,129.29h0c-2.68-4.99-6.39-9.01-11.04-11.94-4.68-2.94-10.02-4.44-15.88-4.44-4.74,0-9.16,1-13.16,2.98-2.17,1.07-4.17,2.36-6,3.86v-24.44c0-2.35-.76-4.31-2.26-5.81-1.5-1.5-3.45-2.26-5.81-2.26s-4.19.75-5.72,2.23c-1.55,1.5-2.34,3.47-2.34,5.84v50.91c.08,6.26,1.57,11.97,4.44,16.99,2.87,5.03,6.84,9.06,11.79,11.97,4.96,2.92,10.62,4.4,16.83,4.4s11.98-1.48,16.94-4.4c4.94-2.91,8.93-6.93,11.84-11.96,2.91-5.03,4.39-10.76,4.39-17.04s-1.35-11.93-4.02-16.91ZM917.89,146.2c0,3.52-.78,6.74-2.33,9.57-1.54,2.81-3.64,5.05-6.24,6.65-2.62,1.6-5.53,2.38-8.91,2.38s-6.21-.78-8.87-2.39c-2.67-1.61-4.7-3.78-6.22-6.62-1.52-2.83-2.29-6.06-2.29-9.59s.77-6.82,2.27-9.57c1.52-2.77,3.56-4.91,6.23-6.53,2.66-1.61,5.56-2.39,8.87-2.39s6.29.78,8.91,2.38c2.61,1.6,4.72,3.81,6.26,6.56,1.54,2.75,2.32,5.97,2.32,9.55Z" style="fill: #013440;"/>
  </g>
  <path d="M122,66.5c4.43,0,8.59,1.72,11.72,4.86,3.13,3.13,4.86,7.3,4.86,11.72s-1.72,8.59-4.86,11.72l-32.94,32.94c-.73.73-1.13,1.71-1.13,2.76,0,1.05.4,2.03,1.13,2.76.73.73,1.71,1.13,2.76,1.13s2.03-.4,2.76-1.13l18.07-18.07c.54,6.23,3.22,12.18,5.35,16.38,5.65,11.1,6.08,18.43,1.41,23.76l-1.38,1.38c-6.99,6.99-16.3,10.84-26.21,10.84s-19.22-3.85-26.21-10.84c-14.45-14.45-14.45-37.97,0-52.42l32.94-32.94c3.13-3.13,7.3-4.86,11.72-4.86" style="fill: #05a6a6;"/>
  <path d="M162.78,92.15c9.91,0,19.22,3.85,26.21,10.84,6.99,6.99,10.84,16.3,10.84,26.21,0,9.91-3.85,19.22-10.84,26.21l-39.55,39.56c-7.73,7.73-18.33,5.12-23.45,0-6.46-6.46-6.46-16.98,0-23.45l39.55-39.56c.73-.73,1.13-1.71,1.13-2.76,0-1.05-.4-2.03-1.13-2.76-.73-.73-1.71-1.13-2.76-1.13s-2.03.4-2.76,1.13l-18.1,18.1c-.53-6.26-3.22-12.23-5.36-16.45-5.5-10.8-6.06-17.98-1.82-23.27l1.83-1.83c6.99-6.99,16.3-10.84,26.21-10.84" style="fill: #013440;"/>
</svg>