<svg width="227" height="38" viewBox="0 0 227 38" fill="none" xmlns="http://www.w3.org/2000/svg">
<g clip-path="url(#clip0_307_8222)">
<path d="M28 1H10C5.02944 1 1 5.02944 1 10V28C1 32.9706 5.02944 37 10 37H28C32.9706 37 37 32.9706 37 28V10C37 5.02944 32.9706 1 28 1Z" fill="black"/>
<path d="M28 2.25C32.2734 2.25 35.75 5.72664 35.75 10V28C35.75 32.2734 32.2734 35.75 28 35.75H10C5.72662 35.75 2.25 32.2734 2.25 28V10C2.25 5.72664 5.72662 2.25 10 2.25H28ZM28 1H10C5.02942 1 1 5.02944 1 10V28C1 32.9706 5.02942 37 10 37H28C32.9706 37 37 32.9706 37 28V10C37 5.02944 32.9706 1 28 1Z" fill="#4D4D4D"/>
<path d="M21.375 27.9375C19.7207 27.9375 18.375 26.5918 18.375 24.9375V20.1875C18.375 19.8428 18.6553 19.5625 19 19.5625C19.3447 19.5625 19.625 19.8428 19.625 20.1875V24.9375C19.625 25.9023 20.4102 26.6875 21.375 26.6875C22.3398 26.6875 23.125 25.9023 23.125 24.9375V20.1875C23.125 18.5332 24.4707 17.1875 26.125 17.1875C27.7793 17.1875 29.125 18.5332 29.125 20.1875V22.5625C29.125 22.9072 28.8447 23.1875 28.5 23.1875C28.1553 23.1875 27.875 22.9072 27.875 22.5625V20.1875C27.875 19.2227 27.0898 18.4375 26.125 18.4375C25.1602 18.4375 24.375 19.2227 24.375 20.1875V24.9375C24.375 26.5918 23.0293 27.9375 21.375 27.9375Z" fill="white"/>
<path d="M11.875 20.8125C10.2207 20.8125 8.875 19.4668 8.875 17.8125V15.4375C8.875 15.0928 9.15527 14.8125 9.5 14.8125C9.84473 14.8125 10.125 15.0928 10.125 15.4375V17.8125C10.125 18.7773 10.9102 19.5625 11.875 19.5625C12.8398 19.5625 13.625 18.7773 13.625 17.8125V13.0625C13.625 11.4082 14.9707 10.0625 16.625 10.0625C18.2793 10.0625 19.625 11.4082 19.625 13.0625V16.625C19.625 16.9697 19.3447 17.25 19 17.25C18.6553 17.25 18.375 16.9697 18.375 16.625V13.0625C18.375 12.0977 17.5898 11.3125 16.625 11.3125C15.6602 11.3125 14.875 12.0977 14.875 13.0625V17.8125C14.875 19.4668 13.5293 20.8125 11.875 20.8125Z" fill="#EE0000"/>
<path d="M222.48 23.392C221.926 23.392 221.435 23.2907 221.008 23.088C220.582 22.8853 220.246 22.608 220 22.256C219.766 21.8933 219.648 21.4773 219.648 21.008C219.648 20.5387 219.771 20.1333 220.016 19.792C220.262 19.44 220.603 19.168 221.04 18.976C221.478 18.784 221.99 18.688 222.576 18.688C223.024 18.688 223.446 18.736 223.84 18.832C224.246 18.928 224.619 19.0827 224.96 19.296V18.224C224.96 17.584 224.79 17.104 224.448 16.784C224.107 16.4533 223.606 16.288 222.944 16.288C222.582 16.288 222.208 16.3413 221.824 16.448C221.451 16.5547 221.035 16.7253 220.576 16.96L220.144 16.064C221.19 15.5627 222.171 15.312 223.088 15.312C224.059 15.312 224.806 15.552 225.328 16.032C225.851 16.5013 226.112 17.1787 226.112 18.064V23.248H224.96V22.336C224.619 22.688 224.24 22.9547 223.824 23.136C223.408 23.3067 222.96 23.392 222.48 23.392ZM220.768 20.976C220.768 21.4347 220.944 21.8027 221.296 22.08C221.659 22.3573 222.134 22.496 222.72 22.496C223.158 22.496 223.558 22.4213 223.92 22.272C224.294 22.1227 224.64 21.8987 224.96 21.6V20.096C224.63 19.904 224.288 19.7653 223.936 19.68C223.584 19.584 223.19 19.536 222.752 19.536C222.155 19.536 221.675 19.6693 221.312 19.936C220.95 20.192 220.768 20.5387 220.768 20.976Z" fill="white"/>
<path d="M212.471 23.2481V11.6961L213.639 11.4561V18.9441L217.351 15.4401H218.759L214.791 19.1521L218.935 23.2481H217.399L213.639 19.5201V23.2481H212.471Z" fill="white"/>
<path d="M207.541 23.2482V16.4002H205.797V15.4402H207.541V13.8082C207.541 13.0402 207.744 12.4482 208.149 12.0322C208.554 11.6162 209.13 11.4082 209.877 11.4082C210.09 11.4082 210.282 11.4189 210.453 11.4402C210.634 11.4615 210.794 11.4989 210.933 11.5522V12.6082C210.762 12.5549 210.608 12.5175 210.469 12.4962C210.33 12.4749 210.17 12.4642 209.989 12.4642C209.541 12.4642 209.216 12.5762 209.013 12.8002C208.81 13.0135 208.709 13.3549 208.709 13.8242V15.4402H210.933V16.4002H208.709V23.2482H207.541Z" fill="white"/>
<path d="M200.777 23.392C200.223 23.392 199.732 23.2907 199.305 23.088C198.879 22.8853 198.543 22.608 198.297 22.256C198.063 21.8933 197.945 21.4773 197.945 21.008C197.945 20.5387 198.068 20.1333 198.313 19.792C198.559 19.44 198.9 19.168 199.337 18.976C199.775 18.784 200.287 18.688 200.873 18.688C201.321 18.688 201.743 18.736 202.137 18.832C202.543 18.928 202.916 19.0827 203.257 19.296V18.224C203.257 17.584 203.087 17.104 202.745 16.784C202.404 16.4533 201.903 16.288 201.241 16.288C200.879 16.288 200.505 16.3413 200.121 16.448C199.748 16.5547 199.332 16.7253 198.873 16.96L198.441 16.064C199.487 15.5627 200.468 15.312 201.385 15.312C202.356 15.312 203.103 15.552 203.625 16.032C204.148 16.5013 204.409 17.1787 204.409 18.064V23.248H203.257V22.336C202.916 22.688 202.537 22.9547 202.121 23.136C201.705 23.3067 201.257 23.392 200.777 23.392ZM199.065 20.976C199.065 21.4347 199.241 21.8027 199.593 22.08C199.956 22.3573 200.431 22.496 201.017 22.496C201.455 22.496 201.855 22.4213 202.217 22.272C202.591 22.1227 202.937 21.8987 203.257 21.6V20.096C202.927 19.904 202.585 19.7653 202.233 19.68C201.881 19.584 201.487 19.536 201.049 19.536C200.452 19.536 199.972 19.6693 199.609 19.936C199.247 20.192 199.065 20.5387 199.065 20.976Z" fill="white"/>
<path d="M189.132 23.2483V12.0483H190.364V17.3603L195.804 12.0483H197.372L191.66 17.5523L197.5 23.2483H195.82L190.364 17.8883V23.2483H189.132Z" fill="white"/>
<path d="M179.788 23.408C179.062 23.408 178.406 23.232 177.82 22.88C177.233 22.5173 176.769 22.032 176.428 21.424C176.086 20.8053 175.916 20.112 175.916 19.344C175.916 18.576 176.076 17.888 176.396 17.28C176.726 16.672 177.169 16.192 177.724 15.84C178.278 15.488 178.897 15.312 179.58 15.312C180.273 15.312 180.886 15.488 181.42 15.84C181.964 16.1813 182.39 16.6507 182.7 17.248C183.02 17.8347 183.18 18.5013 183.18 19.248V19.6H177.052C177.094 20.1333 177.238 20.6133 177.484 21.04C177.74 21.456 178.07 21.7867 178.476 22.032C178.892 22.2667 179.345 22.384 179.836 22.384C180.241 22.384 180.63 22.3147 181.004 22.176C181.388 22.0267 181.713 21.8293 181.98 21.584L182.716 22.368C182.268 22.72 181.804 22.9813 181.324 23.152C180.844 23.3227 180.332 23.408 179.788 23.408ZM177.084 18.768H182.028C181.974 18.2987 181.83 17.8827 181.596 17.52C181.372 17.1467 181.084 16.8533 180.732 16.64C180.39 16.4267 180.006 16.32 179.58 16.32C179.153 16.32 178.764 16.4267 178.412 16.64C178.06 16.8427 177.766 17.1307 177.532 17.504C177.308 17.8667 177.158 18.288 177.084 18.768Z" fill="white"/>
<path d="M167.439 23.2481V11.6961L168.607 11.4561V16.7041C168.906 16.2347 169.263 15.8881 169.679 15.6641C170.095 15.4294 170.565 15.3121 171.087 15.3121C171.653 15.3121 172.143 15.4347 172.559 15.6801C172.986 15.9147 173.317 16.2507 173.551 16.6881C173.797 17.1147 173.919 17.6161 173.919 18.1921V23.2481H172.751V18.5281C172.751 17.8347 172.559 17.2907 172.175 16.8961C171.802 16.4907 171.295 16.2881 170.655 16.2881C170.229 16.2881 169.839 16.3894 169.487 16.5921C169.135 16.7947 168.842 17.0934 168.607 17.4881V23.2481H167.439Z" fill="white"/>
<path d="M162.803 23.376C162.077 23.376 161.421 23.2 160.835 22.848C160.259 22.4853 159.8 22 159.459 21.392C159.117 20.7733 158.947 20.0907 158.947 19.344C158.947 18.5867 159.117 17.904 159.459 17.296C159.8 16.688 160.259 16.208 160.835 15.856C161.421 15.4933 162.077 15.312 162.803 15.312C163.379 15.312 163.928 15.4187 164.451 15.632C164.973 15.8453 165.427 16.144 165.811 16.528L165.059 17.344C164.781 17.0347 164.445 16.7947 164.051 16.624C163.656 16.4533 163.256 16.368 162.851 16.368C162.339 16.368 161.875 16.5013 161.459 16.768C161.053 17.0347 160.728 17.392 160.483 17.84C160.237 18.288 160.115 18.7893 160.115 19.344C160.115 19.8987 160.237 20.4 160.483 20.848C160.728 21.296 161.053 21.6533 161.459 21.92C161.875 22.1867 162.339 22.32 162.851 22.32C163.256 22.32 163.656 22.2347 164.051 22.064C164.445 21.8827 164.781 21.6427 165.059 21.344L165.811 22.16C165.427 22.544 164.973 22.8427 164.451 23.056C163.928 23.2693 163.379 23.376 162.803 23.376Z" fill="white"/>
<path d="M153.293 23.392C152.738 23.392 152.248 23.2907 151.821 23.088C151.394 22.8853 151.058 22.608 150.813 22.256C150.578 21.8933 150.461 21.4773 150.461 21.008C150.461 20.5387 150.584 20.1333 150.829 19.792C151.074 19.44 151.416 19.168 151.853 18.976C152.29 18.784 152.802 18.688 153.389 18.688C153.837 18.688 154.258 18.736 154.653 18.832C155.058 18.928 155.432 19.0827 155.773 19.296V18.224C155.773 17.584 155.602 17.104 155.261 16.784C154.92 16.4533 154.418 16.288 153.757 16.288C153.394 16.288 153.021 16.3413 152.637 16.448C152.264 16.5547 151.848 16.7253 151.389 16.96L150.957 16.064C152.002 15.5627 152.984 15.312 153.901 15.312C154.872 15.312 155.618 15.552 156.141 16.032C156.664 16.5013 156.925 17.1787 156.925 18.064V23.248H155.773V22.336C155.432 22.688 155.053 22.9547 154.637 23.136C154.221 23.3067 153.773 23.392 153.293 23.392ZM151.581 20.976C151.581 21.4347 151.757 21.8027 152.109 22.08C152.472 22.3573 152.946 22.496 153.533 22.496C153.97 22.496 154.37 22.4213 154.733 22.272C155.106 22.1227 155.453 21.8987 155.773 21.6V20.096C155.442 19.904 155.101 19.7653 154.749 19.68C154.397 19.584 154.002 19.536 153.565 19.536C152.968 19.536 152.488 19.6693 152.125 19.936C151.762 20.192 151.581 20.5387 151.581 20.976Z" fill="white"/>
<path d="M141.471 26.5922V15.4402H142.623V16.5602C142.921 16.1656 143.284 15.8669 143.711 15.6642C144.148 15.4509 144.628 15.3442 145.151 15.3442C145.833 15.3442 146.441 15.5256 146.975 15.8882C147.519 16.2402 147.951 16.7202 148.271 17.3282C148.591 17.9256 148.751 18.5976 148.751 19.3442C148.751 20.0909 148.585 20.7682 148.255 21.3762C147.935 21.9842 147.497 22.4696 146.943 22.8322C146.399 23.1842 145.78 23.3602 145.087 23.3602C144.596 23.3602 144.143 23.2696 143.727 23.0882C143.311 22.8962 142.948 22.6242 142.639 22.2722V26.5922H141.471ZM144.863 22.3522C145.385 22.3522 145.849 22.2242 146.255 21.9682C146.671 21.7016 146.996 21.3442 147.231 20.8962C147.476 20.4376 147.599 19.9256 147.599 19.3602C147.599 18.7842 147.476 18.2722 147.231 17.8242C146.996 17.3762 146.671 17.0242 146.255 16.7682C145.849 16.5016 145.385 16.3682 144.863 16.3682C144.404 16.3682 143.977 16.4642 143.583 16.6562C143.199 16.8376 142.884 17.0989 142.639 17.4402V21.2642C142.895 21.6056 143.215 21.8722 143.599 22.0642C143.993 22.2562 144.415 22.3522 144.863 22.3522Z" fill="white"/>
<path d="M129.852 23.2483L134.284 12.0483H135.756L140.124 23.2483H138.796L137.468 19.7283H132.476L131.148 23.2483H129.852ZM132.86 18.7523H137.1L134.972 13.1683L132.86 18.7523Z" fill="white"/>
<path d="M121.549 23.248V15.44H122.717V17.04C122.919 16.496 123.208 16.0747 123.581 15.776C123.965 15.4667 124.402 15.312 124.893 15.312C125.031 15.312 125.159 15.3227 125.277 15.344C125.394 15.3547 125.511 15.3813 125.629 15.424V16.48C125.501 16.4373 125.362 16.4053 125.213 16.384C125.074 16.352 124.941 16.336 124.813 16.336C124.333 16.336 123.911 16.4747 123.549 16.752C123.197 17.0293 122.919 17.4187 122.717 17.92V23.248H121.549Z" fill="white"/>
<path d="M115.724 23.376C114.998 23.376 114.348 23.2 113.772 22.848C113.196 22.496 112.742 22.016 112.412 21.408C112.081 20.8 111.916 20.112 111.916 19.344C111.916 18.576 112.081 17.888 112.412 17.28C112.742 16.672 113.196 16.192 113.772 15.84C114.348 15.488 114.998 15.312 115.724 15.312C116.438 15.312 117.078 15.488 117.644 15.84C118.22 16.192 118.673 16.672 119.004 17.28C119.334 17.888 119.5 18.576 119.5 19.344C119.5 20.112 119.334 20.8 119.004 21.408C118.673 22.016 118.22 22.496 117.644 22.848C117.078 23.2 116.438 23.376 115.724 23.376ZM115.708 22.352C116.22 22.352 116.673 22.224 117.068 21.968C117.462 21.7013 117.772 21.3387 117.996 20.88C118.23 20.4213 118.348 19.9093 118.348 19.344C118.348 18.768 118.23 18.256 117.996 17.808C117.772 17.3493 117.462 16.992 117.068 16.736C116.673 16.4693 116.22 16.336 115.708 16.336C115.196 16.336 114.742 16.4693 114.348 16.736C113.953 16.992 113.638 17.3493 113.404 17.808C113.18 18.256 113.068 18.768 113.068 19.344C113.068 19.9093 113.18 20.4213 113.404 20.88C113.638 21.3387 113.953 21.7013 114.348 21.968C114.742 22.224 115.196 22.352 115.708 22.352Z" fill="white"/>
<path d="M107.666 23.2482V16.4002H105.922V15.4402H107.666V13.8082C107.666 13.0402 107.869 12.4482 108.274 12.0322C108.679 11.6162 109.255 11.4082 110.002 11.4082C110.215 11.4082 110.407 11.4189 110.578 11.4402C110.759 11.4615 110.919 11.4989 111.058 11.5522V12.6082C110.887 12.5549 110.733 12.5175 110.594 12.4962C110.455 12.4749 110.295 12.4642 110.114 12.4642C109.666 12.4642 109.341 12.5762 109.138 12.8002C108.935 13.0135 108.834 13.3549 108.834 13.8242V15.4402H111.058V16.4002H108.834V23.2482H107.666Z" fill="white"/>
<path d="M98.1211 23.408C97.4811 23.408 96.8891 23.312 96.3451 23.12C95.8011 22.9173 95.3371 22.6293 94.9531 22.256L95.5771 21.488C96.0465 21.8293 96.4785 22.08 96.8731 22.24C97.2678 22.3893 97.6731 22.464 98.0891 22.464C98.6545 22.464 99.1238 22.3307 99.4971 22.064C99.8705 21.7973 100.057 21.456 100.057 21.04C100.057 20.72 99.9451 20.4693 99.7211 20.288C99.5078 20.1067 99.1505 19.968 98.6491 19.872L97.3691 19.648C96.6118 19.5093 96.0518 19.2747 95.6891 18.944C95.3371 18.6133 95.1611 18.1653 95.1611 17.6C95.1611 17.152 95.2785 16.7573 95.5131 16.416C95.7585 16.0747 96.0945 15.808 96.5211 15.616C96.9478 15.4133 97.4331 15.312 97.9771 15.312C98.5105 15.312 99.0171 15.392 99.4971 15.552C99.9771 15.7013 100.462 15.9467 100.953 16.288L100.377 17.104C99.9718 16.816 99.5665 16.608 99.1611 16.48C98.7558 16.3413 98.3451 16.272 97.9291 16.272C97.4171 16.272 97.0065 16.384 96.6971 16.608C96.3878 16.832 96.2331 17.136 96.2331 17.52C96.2331 17.84 96.3291 18.0853 96.5211 18.256C96.7238 18.4267 97.0758 18.5547 97.5771 18.64L98.8891 18.88C99.6785 19.0187 100.254 19.2587 100.617 19.6C100.98 19.9413 101.161 20.4 101.161 20.976C101.161 21.4347 101.028 21.8507 100.761 22.224C100.494 22.5867 100.132 22.8747 99.6731 23.088C99.2145 23.3013 98.6971 23.408 98.1211 23.408Z" fill="white"/>
<path d="M82.1895 23.248V15.44H83.3575V16.656C83.6561 16.208 83.9975 15.872 84.3815 15.648C84.7655 15.424 85.1975 15.312 85.6775 15.312C86.2321 15.312 86.7175 15.4507 87.1335 15.728C87.5495 15.9947 87.8641 16.3627 88.0775 16.832C88.3868 16.3307 88.7548 15.952 89.1815 15.696C89.6188 15.44 90.1201 15.312 90.6855 15.312C91.2081 15.312 91.6668 15.4347 92.0615 15.68C92.4668 15.9253 92.7815 16.2667 93.0055 16.704C93.2295 17.1307 93.3415 17.632 93.3415 18.208V23.248H92.1735V18.496C92.1735 17.8133 92.0028 17.2747 91.6615 16.88C91.3201 16.4853 90.8508 16.288 90.2535 16.288C89.8481 16.288 89.4801 16.3893 89.1495 16.592C88.8295 16.7947 88.5468 17.104 88.3015 17.52C88.3228 17.6267 88.3388 17.7387 88.3495 17.856C88.3601 17.9733 88.3655 18.0907 88.3655 18.208V23.248H87.1975V18.496C87.1975 17.8133 87.0215 17.2747 86.6695 16.88C86.3281 16.4853 85.8588 16.288 85.2615 16.288C84.4615 16.288 83.8268 16.672 83.3575 17.44V23.248H82.1895Z" fill="white"/>
<path d="M76.1836 23.392C75.6289 23.392 75.1382 23.2907 74.7116 23.088C74.2849 22.8853 73.9489 22.608 73.7036 22.256C73.4689 21.8933 73.3516 21.4773 73.3516 21.008C73.3516 20.5387 73.4742 20.1333 73.7196 19.792C73.9649 19.44 74.3062 19.168 74.7436 18.976C75.1809 18.784 75.6929 18.688 76.2796 18.688C76.7276 18.688 77.1489 18.736 77.5436 18.832C77.9489 18.928 78.3222 19.0827 78.6636 19.296V18.224C78.6636 17.584 78.4929 17.104 78.1516 16.784C77.8102 16.4533 77.3089 16.288 76.6476 16.288C76.2849 16.288 75.9116 16.3413 75.5276 16.448C75.1542 16.5547 74.7382 16.7253 74.2796 16.96L73.8476 16.064C74.8929 15.5627 75.8742 15.312 76.7916 15.312C77.7622 15.312 78.5089 15.552 79.0316 16.032C79.5542 16.5013 79.8156 17.1787 79.8156 18.064V23.248H78.6636V22.336C78.3222 22.688 77.9436 22.9547 77.5276 23.136C77.1116 23.3067 76.6636 23.392 76.1836 23.392ZM74.4716 20.976C74.4716 21.4347 74.6476 21.8027 74.9996 22.08C75.3622 22.3573 75.8369 22.496 76.4236 22.496C76.8609 22.496 77.2609 22.4213 77.6236 22.272C77.9969 22.1227 78.3436 21.8987 78.6636 21.6V20.096C78.3329 19.904 77.9916 19.7653 77.6396 19.68C77.2876 19.584 76.8929 19.536 76.4556 19.536C75.8582 19.536 75.3782 19.6693 75.0156 19.936C74.6529 20.192 74.4716 20.5387 74.4716 20.976Z" fill="white"/>
<path d="M68.5375 23.408C67.8122 23.408 67.1562 23.232 66.5695 22.88C65.9829 22.5173 65.5189 22.032 65.1775 21.424C64.8362 20.8053 64.6655 20.112 64.6655 19.344C64.6655 18.576 64.8255 17.888 65.1455 17.28C65.4762 16.672 65.9189 16.192 66.4735 15.84C67.0282 15.488 67.6469 15.312 68.3295 15.312C69.0229 15.312 69.6362 15.488 70.1695 15.84C70.7135 16.1813 71.1402 16.6507 71.4495 17.248C71.7695 17.8347 71.9295 18.5013 71.9295 19.248V19.6H65.8015C65.8442 20.1333 65.9882 20.6133 66.2335 21.04C66.4895 21.456 66.8202 21.7867 67.2255 22.032C67.6415 22.2667 68.0949 22.384 68.5855 22.384C68.9909 22.384 69.3802 22.3147 69.7535 22.176C70.1375 22.0267 70.4629 21.8293 70.7295 21.584L71.4655 22.368C71.0175 22.72 70.5535 22.9813 70.0735 23.152C69.5935 23.3227 69.0815 23.408 68.5375 23.408ZM65.8335 18.768H70.7775C70.7242 18.2987 70.5802 17.8827 70.3455 17.52C70.1215 17.1467 69.8335 16.8533 69.4815 16.64C69.1402 16.4267 68.7562 16.32 68.3295 16.32C67.9029 16.32 67.5135 16.4267 67.1615 16.64C66.8095 16.8427 66.5162 17.1307 66.2815 17.504C66.0575 17.8667 65.9082 18.288 65.8335 18.768Z" fill="white"/>
<path d="M59.877 23.248V15.44H61.045V17.04C61.2476 16.496 61.5356 16.0747 61.909 15.776C62.293 15.4667 62.7303 15.312 63.221 15.312C63.3596 15.312 63.4876 15.3227 63.605 15.344C63.7223 15.3547 63.8396 15.3813 63.957 15.424V16.48C63.829 16.4373 63.6903 16.4053 63.541 16.384C63.4023 16.352 63.269 16.336 63.141 16.336C62.661 16.336 62.2396 16.4747 61.877 16.752C61.525 17.0293 61.2476 17.4187 61.045 17.92V23.248H59.877Z" fill="white"/>
<path d="M56.8061 23.4084C56.1341 23.4084 55.6221 23.2484 55.2701 22.9284C54.9288 22.5977 54.7581 22.1231 54.7581 21.5044V16.4004H53.1421V15.4404H54.7581V13.2964L55.9261 13.0244V15.4404H58.1661V16.4004H55.9261V21.2004C55.9261 21.6164 56.0114 21.9151 56.1821 22.0964C56.3634 22.2777 56.6568 22.3684 57.0621 22.3684C57.2648 22.3684 57.4461 22.3524 57.6061 22.3204C57.7661 22.2884 57.9528 22.2351 58.1661 22.1604V23.2004C57.9528 23.2751 57.7288 23.3284 57.4941 23.3604C57.2594 23.3924 57.0301 23.4084 56.8061 23.4084Z" fill="white"/>
<path d="M49.168 23.408C48.528 23.408 47.936 23.312 47.392 23.12C46.848 22.9173 46.384 22.6293 46 22.256L46.624 21.488C47.0933 21.8293 47.5253 22.08 47.92 22.24C48.3147 22.3893 48.72 22.464 49.136 22.464C49.7013 22.464 50.1707 22.3307 50.544 22.064C50.9173 21.7973 51.104 21.456 51.104 21.04C51.104 20.72 50.992 20.4693 50.768 20.288C50.5547 20.1067 50.1973 19.968 49.696 19.872L48.416 19.648C47.6587 19.5093 47.0987 19.2747 46.736 18.944C46.384 18.6133 46.208 18.1653 46.208 17.6C46.208 17.152 46.3253 16.7573 46.56 16.416C46.8053 16.0747 47.1413 15.808 47.568 15.616C47.9947 15.4133 48.48 15.312 49.024 15.312C49.5573 15.312 50.064 15.392 50.544 15.552C51.024 15.7013 51.5093 15.9467 52 16.288L51.424 17.104C51.0187 16.816 50.6133 16.608 50.208 16.48C49.8027 16.3413 49.392 16.272 48.976 16.272C48.464 16.272 48.0533 16.384 47.744 16.608C47.4347 16.832 47.28 17.136 47.28 17.52C47.28 17.84 47.376 18.0853 47.568 18.256C47.7707 18.4267 48.1227 18.5547 48.624 18.64L49.936 18.88C50.7253 19.0187 51.3013 19.2587 51.664 19.6C52.0267 19.9413 52.208 20.4 52.208 20.976C52.208 21.4347 52.0747 21.8507 51.808 22.224C51.5413 22.5867 51.1787 22.8747 50.72 23.088C50.2613 23.3013 49.744 23.408 49.168 23.408Z" fill="white"/>
</g>
<defs>
<clipPath id="clip0_307_8222">
<rect width="227" height="38" fill="white"/>
</clipPath>
</defs>
</svg>
