<?xml version="1.0" encoding="UTF-8" standalone="no"?>
<svg
   id="Layer_1"
   data-name="Layer 1"
   viewBox="0 0 1376 244"
   version="1.1"
   sodipodi:docname="masthead-logo.svg"
   inkscape:version="1.3.2 (091e20ef0f, 2023-11-25)"
   width="1376"
   height="244"
   xmlns:inkscape="http://www.inkscape.org/namespaces/inkscape"
   xmlns:sodipodi="http://sodipodi.sourceforge.net/DTD/sodipodi-0.dtd"
   xmlns="http://www.w3.org/2000/svg"
   xmlns:svg="http://www.w3.org/2000/svg"
   xmlns:rdf="http://www.w3.org/1999/02/22-rdf-syntax-ns#"
   xmlns:cc="http://creativecommons.org/ns#"
   xmlns:dc="http://purl.org/dc/elements/1.1/">
  <title
     id="title1">Red Hat Streams for Apache Kafka logo</title>
  <sodipodi:namedview
     id="namedview6"
     pagecolor="#363636"
     bordercolor="#000000"
     borderopacity="0.25"
     inkscape:showpageshadow="2"
     inkscape:pageopacity="0.0"
     inkscape:pagecheckerboard="0"
     inkscape:deskcolor="#d1d1d1"
     showgrid="true"
     inkscape:zoom="3.1516393"
     inkscape:cx="1040.0936"
     inkscape:cy="133.42263"
     inkscape:window-width="3394"
     inkscape:window-height="867"
     inkscape:window-x="312"
     inkscape:window-y="32"
     inkscape:window-maximized="0"
     inkscape:current-layer="Layer_1">
    <inkscape:grid
       id="grid6"
       units="px"
       originx="0"
       originy="0"
       spacingx="1"
       spacingy="1"
       empcolor="#0099e5"
       empopacity="0.30196078"
       color="#0099e5"
       opacity="0.14902"
       empspacing="5"
       dotted="false"
       gridanglex="30"
       gridanglez="30"
       visible="true" />
  </sodipodi:namedview>
  <defs
     id="defs1">
    <style
       id="style1">.cls-1{fill:#fff;}.cls-2{fill:#e00;}</style>
  </defs>
  <path
     class="cls-2"
     d="m 128,84 c 12.51,0 30.61,-2.58 30.61,-17.46 A 14,14 0 0 0 158.3,63.12 L 150.85,30.76 C 149.13,23.64 147.62,20.41 135.12,14.16 125.39,9.19 104.26,1 98,1 92.18,1 90.45,8.54 83.55,8.54 c -6.68,0 -11.64,-5.6 -17.89,-5.6 -6,0 -9.91,4.09 -12.93,12.5 0,0 -8.41,23.72 -9.49,27.16 A 6.43,6.43 0 0 0 43,44.54 C 43,53.76 79.33,84 128,84 m 32.55,-11.42 c 1.73,8.19 1.73,9.05 1.73,10.13 0,14 -15.74,21.77 -36.43,21.77 C 79,104.47 38.08,77.1 38.08,59 a 18.45,18.45 0 0 1 1.51,-7.33 C 22.77,52.52 1,55.54 1,74.72 1,106.2 75.59,145 134.65,145 c 45.28,0 56.7,-20.48 56.7,-36.65 0,-12.72 -11,-27.16 -30.83,-35.78"
     id="path4" />
  <path
     d="m 160.52,72.57 c 1.73,8.19 1.73,9.05 1.73,10.13 0,14 -15.74,21.77 -36.43,21.77 C 79,104.47 38.08,77.1 38.08,59 a 18.45,18.45 0 0 1 1.51,-7.33 l 3.66,-9.06 A 6.43,6.43 0 0 0 43,44.54 C 43,53.76 79.33,84 128,84 c 12.51,0 30.61,-2.58 30.61,-17.46 a 14,14 0 0 0 -0.31,-3.42 z"
     id="path5" />
  <path
     class="cls-1"
     d="m 580.24,93.3 c 0,11.89 7.15,17.67 20.19,17.67 a 52.11,52.11 0 0 0 11.89,-1.68 V 95.51 a 24.84,24.84 0 0 1 -7.68,1.16 c -5.37,0 -7.36,-1.68 -7.36,-6.73 V 68.8 h 15.56 V 54.6 h -15.56 v -18 l -17,3.68 V 54.6 H 569 v 14.2 h 11.25 z m -53,0.32 c 0,-3.68 3.69,-5.47 9.26,-5.47 a 43.12,43.12 0 0 1 10.1,1.26 v 7.15 A 21.51,21.51 0 0 1 536,99.19 c -5.46,0 -8.73,-2.1 -8.73,-5.57 m 5.2,17.56 c 6,0 10.84,-1.26 15.36,-4.31 v 3.37 h 16.82 V 74.58 c 0,-13.56 -9.14,-21 -24.39,-21 -8.52,0 -16.94,2 -26,6.1 l 6.1,12.52 c 6.52,-2.74 12,-4.42 16.83,-4.42 7,0 10.62,2.73 10.62,8.31 v 2.73 a 49.53,49.53 0 0 0 -12.62,-1.58 c -14.31,0 -22.93,6 -22.93,16.73 0,9.78 7.78,17.24 20.19,17.24 m -92.44,-0.94 H 458.1 V 81.42 h 30.29 v 28.82 h 18.09 V 36.62 H 488.43 V 64.91 H 458.14 V 36.62 h -18.09 z m -68.89,-27.9 c 0,-8 6.31,-14.1 14.62,-14.1 a 17.22,17.22 0 0 1 11.78,4.32 V 92 a 16.36,16.36 0 0 1 -11.78,4.42 c -8.2,0 -14.62,-6.1 -14.62,-14.09 m 26.61,27.87 h 16.83 V 32.94 l -17,3.68 v 20.93 a 28.3,28.3 0 0 0 -14.2,-3.68 c -16.19,0 -28.92,12.51 -28.92,28.5 A 28.25,28.25 0 0 0 382.8,111 25.12,25.12 0 0 0 397.73,106.17 Z M 320.54,67.5 c 5.36,0 9.88,3.47 11.67,8.83 H 309 c 1.68,-5.57 5.89,-8.83 11.57,-8.83 m -28.74,14.97 c 0,16.2 13.25,28.82 30.28,28.82 9.36,0 16.2,-2.53 23.25,-8.42 l -11.26,-10 c -2.63,2.74 -6.52,4.21 -11.14,4.21 a 14.39,14.39 0 0 1 -13.68,-8.83 h 39.65 v -4.2 c 0,-17.67 -11.88,-30.39 -28.08,-30.39 a 28.57,28.57 0 0 0 -29,28.81 M 262.49,52.08 c 6,0 9.36,3.78 9.36,8.31 0,4.53 -3.37,8.31 -9.36,8.31 H 244.61 V 52.08 Z m -36,58.16 h 18.09 V 83.42 h 13.77 l 13.89,26.82 h 20.19 l -16.2,-29.45 a 22.27,22.27 0 0 0 13.88,-20.72 c 0,-13.25 -10.41,-23.45 -26,-23.45 h -37.59 z"
     id="path6" />
  <metadata
     id="metadata6">
    <rdf:RDF>
      <cc:Work
         rdf:about="">
        <dc:title>Red Hat Streams for Apache Kafka logo</dc:title>
      </cc:Work>
    </rdf:RDF>
  </metadata>
  <text
     xml:space="preserve"
     style="font-size:101.867px;fill:#ffffff;stroke-width:1.06111"
     x="220.20235"
     y="217.57462"
     id="text6"
     transform="scale(0.98980157,1.0103035)"><tspan
       sodipodi:role="line"
       id="tspan6"
       x="220.20235"
       y="217.57462"
       style="font-style:normal;font-variant:normal;font-weight:normal;font-stretch:normal;font-family:'Red Hat Text';-inkscape-font-specification:'Red Hat Text';stroke-width:1.06111">Streams for Apache Kafka</tspan></text>
</svg>
