<?xml version="1.0" encoding="UTF-8"?>
<svg width="607px" height="1080px" viewBox="0 0 607 1080" version="1.1" xmlns="http://www.w3.org/2000/svg" xmlns:xlink="http://www.w3.org/1999/xlink">
    <title>Group 11</title>
    <defs>
        <rect id="path-1" x="0" y="0" width="578.095238" height="708.166667"/>
        <rect id="path-3" x="0" y="0" width="160.737214" height="180.916664"/>
    </defs>
    <g id="Page-3" stroke="none" stroke-width="1" fill="none" fill-rule="evenodd">
        <g id="Group-11">
            <rect id="Rectangle" fill="#F5F5F5" x="0" y="0" width="607" height="1080"/>
            <g id="Group-10" transform="translate(0.000000, 186.234694)">
                <g id="Group-5-Copy">
                    <mask id="mask-2" fill="white">
                        <use xlink:href="#path-1"/>
                    </mask>
                    <g id="SVGID_00000030478150072949898910000000573185149040828305_"/>
                    <path d="M505.994785,43.1200932 C501.556663,43.1200932 497.504464,43.6027951 493.838189,44.5681989 C493.838189,44.1820374 493.838189,43.7958759 493.838189,43.4097143 C493.838189,24.1981796 478.304761,8.6551792 459.105058,8.6551792 C442.124416,8.6551792 428.038201,20.8192665 424.950812,36.8449688 C422.538789,36.2657266 420.126766,35.8795651 417.521781,35.8795651 C401.409467,35.8795651 388.384543,48.9125157 388.384543,65.0347584 C388.384543,81.1570011 401.409467,94.1899518 417.521781,94.1899518 L507.53848,94.1899518 C521.624695,94.1899518 533.009443,82.7981875 533.009443,68.7032927 C532.912962,54.5118575 521.238771,43.1200932 505.994785,43.1200932 Z" id="Path" fill="#B8BBBE" fill-rule="nonzero" opacity="0.573079427" mask="url(#mask-2)"/>
                    <path d="M-106.023587,89.8456349 C-158.219765,137.826201 -152.623872,218.630496 -115.961122,264.487174 C-79.2983717,310.343852 -3.75381066,345.291468 24.5150992,472.048981 C52.784009,598.806494 91.858782,690.32677 214.871956,696.215733 C337.88513,702.104696 384.485415,611.356743 384.485415,536.441412 C384.485415,505.451951 391.432041,473.979789 406.097141,446.562322 C415.069867,429.860837 427.612387,415.669402 442.277487,403.794936 C456.653144,392.210091 474.116191,384.19724 487.430558,371.45391 C513.190964,346.739574 524.575712,309.76461 519.655185,274.623913 C517.822048,261.687503 513.86633,248.944174 507.884513,237.359329 C493.412375,209.169539 465.62587,188.79952 435.23438,180.883209 C411.982478,174.897706 386.897438,175.573488 363.066651,175.766569 C333.447008,175.95965 303.827365,177.118134 274.207722,175.95965 C248.061393,174.994246 220.56433,172.966898 196.058177,163.11978 C194.610963,162.540538 193.163749,161.961295 191.716535,161.285513 C127.653204,132.130319 79.5092241,85.5978584 27.120084,69.7652368 C-25.269056,53.9326153 -75.2461731,61.5593049 -106.023587,89.8456349 Z" id="Path" fill="#D2D2D2" fill-rule="nonzero" opacity="0.573079427" mask="url(#mask-2)"/>
                    <path d="M173.192198,286.528084 C173.192198,316.16598 151.001586,340.590695 122.346753,344.066148 C120.417135,344.355769 118.487516,344.54885 116.557898,344.54885 L-94.6388382,344.54885 C-120.109801,344.54885 -140.853199,323.88921 -140.853199,298.30601 C-140.853199,272.819351 -120.206282,252.06317 -94.6388382,252.06317 C-86.341479,252.06317 -78.5265244,254.283599 -71.7728599,258.145214 C-67.7206612,220.204846 -33.6628961,183.519504 16.3142209,183.519504 C47.7670011,183.519504 79.0268195,203.310281 90.0256445,231.210449 C97.8405991,229.376182 106.33092,228.507319 115.303646,228.507319 C147.238831,228.507319 173.192198,254.47668 173.192198,286.528084 Z" id="Path" fill="#FFFFFF" fill-rule="nonzero" mask="url(#mask-2)"/>
                </g>
                <g id="Group-4" transform="translate(0.000000, 304.254383)">
                    <g id="Group-2" transform="translate(348.409692, 236.565842)">
                        <path d="M55.865014,31.4120729 L44.3309447,31.4120729 L44.3309447,0.501790303 L55.865014,0.501790303 C60.2780492,0.501790303 63.8887144,4.11468048 63.8887144,8.53043514 L63.8887144,23.3834281 C63.8887144,27.7991828 60.2780492,31.4120729 55.865014,31.4120729 Z" id="Path" stroke="#0066CC" stroke-width="2.1932" stroke-linecap="round"/>
                        <path d="M38.6140581,54.1933527 L11.2331805,54.1933527 C6.82014533,54.1933527 3.20948016,50.5804625 3.20948016,46.1647078 L3.20948016,0.501790303 L46.5374623,0.501790303 L46.5374623,46.1647078 C46.6377585,50.6808206 43.0270933,54.1933527 38.6140581,54.1933527 Z" id="Path" fill="#0066CC" fill-rule="nonzero"/>
                        <path d="M38.6140581,54.1933527 L24.9737675,54.1933527 L24.9737675,0.501790303 L46.6377585,0.501790303 L46.6377585,46.1647078 C46.6377585,50.6808206 43.0270933,54.1933527 38.6140581,54.1933527 Z" id="Path" fill="#004080" fill-rule="nonzero"/>
                        <line x1="0" y1="0.501790303" x2="49.9475349" y2="0.501790303" id="Path" stroke="#0066CC" stroke-width="2.0034" stroke-linecap="round"/>
                    </g>
                    <g id="undraw_developer_activity_re_39tg-(1)-2" transform="translate(16.788528, 0.000000)" fill-rule="nonzero">
                        <g id="undraw_developer_activity_re_39tg-(1)">
                            <path d="M233.88956,116.357327 L219.724292,116.357327 C218.810706,116.357789 218.070236,117.102202 218.069861,118.020567 L218.069861,132.259915 C218.068982,132.701263 218.243004,133.12479 218.553461,133.43687 C218.863918,133.748951 219.285241,133.923883 219.724292,133.922999 L233.88956,133.922999 C234.803147,133.922622 235.543687,133.17828 235.544147,132.259915 L235.544147,118.020567 C235.541477,117.103099 234.802255,116.360011 233.88956,116.357327 Z" id="Path" fill="#E6E6E6"/>
                            <path d="M235.518668,142.002284 C235.372951,141.212006 234.689107,140.637342 233.88956,140.633273 L219.724292,140.633273 C218.810717,140.633763 218.070265,141.37816 218.069861,142.296513 L218.069861,156.535862 C218.068973,156.977221 218.24299,157.400762 218.553446,157.71286 C218.863902,158.024957 219.285229,158.199908 219.724292,158.199041 L233.88956,158.199041 C234.80317,158.198629 235.543705,157.454249 235.544275,156.535862 L235.544275,142.296513 C235.545439,142.197828 235.536903,142.099261 235.518668,142.002284 L235.518668,142.002284 Z" id="Path" fill="#E6E6E6"/>
                            <polygon id="Path" fill="#2F2E41" points="175.979356 374.854263 175.584816 374.854263 175.922084 374.809485"/>
                            <ellipse id="b6132315-04e2-4cdb-a713-107c9cd58b0b" fill="#FFB6B6" cx="142.073954" cy="65.6837008" rx="43.4769674" ry="43.7043411"/>
                            <path d="M180.148087,33.6404266 C180.148087,33.6404266 191.519374,11.7882657 166.502194,9.80167827 C166.502194,9.80167827 145.174818,-9.64615012 123.436343,6.24631893 C123.436343,6.24631893 111.578996,6.24631893 105.094969,19.7344682 C105.094969,19.7344682 95.7691829,16.1791089 93.7197945,25.6941473 C93.7197945,25.6941473 86.8958454,45.559804 93.7197945,63.4388668 C100.543737,81.3179617 102.810365,83.3044659 102.810365,83.3044659 C102.810365,83.3044659 91.5972125,45.8200655 118.891004,43.8334525 C146.184796,41.8468395 176.727232,24.7008984 179.001846,46.5530273 C181.27646,68.4051563 184.699319,73.7893572 184.699319,73.7893572 C184.699319,73.7893572 206.303312,42.5799996 180.148087,33.6404266 Z" id="f4304bdd-ba2d-4fff-b404-410205410c5d-76" fill="#030303"/>
                            <polygon id="Path" fill="#004080" points="254.539326 173.391502 254.399264 174.133534 252.827467 182.475003 241.964921 240.17443 241.322202 243.571186 239.973129 250.754829 238.127762 260.554737 234.035884 282.272034 232.865092 288.496152 232.425969 290.830931 232.273243 291.649726 231.983229 293.839677 72.7693045 293.839677 72.166347 290.830887 72.1217576 289.896949 72.0517585 288.496081 70.7090489 260.55468 70.6835947 260.09405 70.2763973 251.624644 69.8945206 243.571135 69.7290682 240.174379 68.0936734 206.188009 66.9864153 183.108271 66.0191553 163.015821 69.9072859 161.691715 111.493165 147.484293 128.719186 124.973802 164.571498 125.242469 182.122227 125.37686 211.407231 152.678495 218.069928 155.876911 218.120836 155.902498 222.899788 158.198961 235.015992 164.013682 247.825905 170.167511 254.399347 173.321105"/>
                            <path d="M120.035938,293.839677 C112.572786,293.839677 115.060503,293.839677 107.475695,294.938561 L39.6664311,285.267881 L63.2388111,258.463875 L124.017737,271.756684 C133.75715,270.50775 142.88658,276.77886 145.268107,286.353806 C147.649633,295.928752 141.652634,290.334012 132.474526,293.839677 C127.499091,293.839677 127.499091,293.839677 120.035938,293.839677 Z" id="Path" fill="#FFB6B6"/>
                            <path d="M103.118558,260.554744 C101.86248,258.953992 100.084296,257.850675 98.0977849,257.439486 L70.2763337,251.624708 L67.4190987,251.029848 C64.0606767,250.325294 61.1603498,248.214875 59.4455102,245.227876 C58.5660243,243.677586 58.0339388,241.952931 57.8864399,240.174443 C57.753829,238.557454 57.9464415,236.930177 58.452796,235.389612 L68.093578,206.188073 L74.3489182,187.240656 C75.1070437,184.955487 75.5544399,182.577799 75.6789579,180.172157 C76.0274715,173.514873 73.9784439,166.9542 69.9071713,161.691779 C62.5582761,152.194884 49.8923492,148.651351 38.7194009,152.96641 C38.5603121,153.024039 38.3948597,153.087988 38.2357709,153.151918 C30.3235637,156.327761 24.3578256,163.059211 22.1296197,171.325318 L15.3333457,196.177012 L1.3144397,247.409298 C-1.52542088,257.79658 0.285267443,268.912439 6.27247249,277.846781 C12.2596775,286.781122 21.8272358,292.644328 32.4703924,293.90143 L75.257022,293.839677 C83.9019334,293.481587 89.7066077,293.481587 92.671045,293.839677 C97.117701,294.376812 99.6425442,298.359292 100.528586,293.946208 C100.55859,293.830363 100.581961,293.712885 100.598585,293.59435 L101.044033,290.830874 L104.817658,267.559275 L104.855795,267.322515 C105.253397,264.921207 104.622357,262.462858 103.118558,260.554744 Z" id="Path" fill="#0066CC"/>
                            <path d="M189.69203,293.839677 C196.467631,296.536975 199.953434,295.977017 200.149439,292.159803 L265.924389,272.973355 L238.827397,249.778723 L180.520622,271.554487 C170.703268,271.698578 162.544723,279.201197 161.530213,289.018116 C160.515703,298.835036 167.675183,291.670165 177.253442,293.839677 C180.957351,294.704048 185.103547,294.704048 189.69203,293.839677 Z" id="Path" fill="#FFB6B6"/>
                            <path d="M298.581536,230.054616 L267.29821,157.680927 C264.739492,151.739063 260.169569,146.900455 254.39929,144.023626 C252.615715,143.140945 250.742458,142.454631 248.812154,141.97664 C248.513004,141.899878 248.213936,141.829512 247.914893,141.771896 C243.821677,140.87403 239.576101,140.952925 235.518693,142.002252 C228.017577,143.939356 221.691065,148.994003 218.120741,155.902569 C218.101413,155.930978 218.084389,155.960902 218.069832,155.992054 C214.070879,163.768609 213.983466,172.992081 217.834305,180.843811 L218.222551,181.624225 L240.329532,226.254923 C241.85634,229.341766 241.999678,232.936983 240.72351,236.136749 C239.447342,239.336516 236.87305,241.83649 233.647802,243.008188 L232.095057,243.571193 L204.171789,253.710076 C199.816898,255.272183 197.473829,260.019587 198.87095,264.450357 L198.940949,264.67431 L206.768119,289.852152 C206.806262,289.967327 206.844399,290.082508 206.888988,290.197581 C206.957798,290.414838 207.042889,290.626539 207.14353,290.830867 C208.862143,294.705309 213.128595,296.747974 217.204262,295.647682 L232.273192,291.649662 L235.346756,290.830867 L274.259879,280.500047 C284.621289,277.747789 293.271697,270.58675 297.945765,260.892237 C302.619832,251.197724 302.851987,239.935383 298.581434,230.054558 L298.581536,230.054616 Z" id="Path" fill="#0066CC"/>
                            <path d="M253.966606,116.357327 C253.350523,115.214142 252.16095,114.502309 250.867556,114.502309 L42.2448535,114.502309 C40.2974712,114.507422 38.7194454,116.094927 38.7194454,118.0525 L38.7194454,243.571205 L254.399332,243.571205 L254.399332,118.0525 C254.402618,117.459424 254.253585,116.875525 253.966606,116.357327 Z" id="Path" fill="#151515"/>
                            <path d="M38.5305306,240.172895 L38.5305306,255.662063 C38.5305306,256.958881 39.0429859,258.202591 39.9551986,259.119586 C40.8674114,260.036581 42.1046435,260.551747 43.3947156,260.55175 L123.000663,260.55175 L123.000663,291.12003 L121.943136,291.12003 C121.775549,291.120013 121.61482,291.186924 121.496314,291.30604 C121.377807,291.425157 121.311232,291.586721 121.311235,291.755184 L121.311235,293.881325 C121.311218,294.049797 121.377788,294.211374 121.496296,294.330502 C121.614804,294.449629 121.77554,294.51653 121.943136,294.51653 L171.361466,294.51653 C171.529061,294.51653 171.689796,294.449627 171.808304,294.3305 C171.926812,294.211372 171.993382,294.049796 171.993367,293.881325 L171.993367,291.755184 C171.99337,291.586721 171.926794,291.425157 171.808288,291.30604 C171.689781,291.186924 171.529053,291.120013 171.361466,291.12003 L170.303939,291.12003 L170.303939,260.55175 L249.909886,260.55175 C251.199958,260.551747 252.43719,260.036581 253.349403,259.119586 C254.261616,258.202591 254.774071,256.958881 254.774071,255.662063 L254.774071,240.172895 L38.5305306,240.172895 Z" id="Path" fill="#030303"/>
                            <path d="M194.798296,63.2956354 L191.61652,63.2956354 C191.61652,39.1156096 167.81047,23.2706563 143.794423,23.2578626 C140.301239,23.2475962 136.815779,23.5883217 133.390015,24.2749589 C129.533702,25.0489756 125.531028,25.9765163 121.598352,27.1855176 C106.090375,31.9639512 91.7087465,41.2009769 91.7087465,63.2956354 C91.7054354,67.5865723 92.2486318,71.8602807 93.3250888,76.0125378 L90.2451294,76.8185387 C89.1027358,72.4026792 88.5253566,67.8583715 88.5269669,63.2956354 C88.5269669,43.9899958 96.4114117,30.7293626 110.029414,22.822878 C117.18841,18.6649371 125.925568,15.9846644 135.935436,14.6797106 C140.100904,14.1226503 144.312026,13.9940484 148.503452,14.2959007 C176.121269,16.2916867 194.798296,37.5803571 194.798296,63.2956354 Z" id="Path" fill="#0066CC"/>
                            <path d="M200.099135,65.0675323 L198.845515,55.7537446 C198.536296,53.4016461 197.409201,51.2353701 195.663739,49.638373 C193.393323,47.5288904 190.284378,46.5854326 187.232032,47.0796401 L185.24024,47.3547039 C184.139357,47.500361 183.142391,48.0832378 182.472095,48.9731025 C181.796114,49.8599164 181.500581,50.9814459 181.651196,52.0883598 L184.546613,73.543335 C184.791297,75.3366726 186.149636,76.7716759 187.919296,77.1063705 C188.174894,77.1578668 188.434968,77.1835817 188.695649,77.1831383 C188.882962,77.1831383 189.070057,77.1702787 189.255642,77.1447515 L191.482885,76.8441004 C194.227432,76.4780016 196.700128,74.9898649 198.31734,72.7309373 C198.489156,72.4878577 198.654609,72.2383812 198.807334,71.9824759 C200.000044,69.8894008 200.4552,67.4529728 200.099135,65.0675323 Z" id="Path" fill="#0066CC"/>
                            <path d="M183.954802,47.7449363 C183.370624,48.0302744 182.862386,48.4512699 182.472095,48.9731281 C181.796114,49.859942 181.500581,50.9814715 181.651196,52.0883853 L184.546613,73.5433606 C184.791297,75.3366981 186.149636,76.7717015 187.919296,77.1063961 L183.954802,47.7449363 Z" id="Path" fill="#002952"/>
                            <path d="M200.099135,65.0675323 L198.845515,55.7537446 C198.536296,53.4016461 197.409201,51.2353701 195.663739,49.638373 L198.546428,70.9846021 C198.589625,71.3272724 198.677342,71.6627683 198.807334,71.9825079 C200.000051,69.8894237 200.455207,67.4529833 200.099135,65.0675323 Z" id="Path" fill="#002952"/>
                            <ellipse id="Oval" fill="#002952" transform="translate(189.592490, 67.341121) rotate(-7.725490) translate(-189.592490, -67.341121) " cx="189.59249" cy="67.3411212" rx="1.5910375" ry="4.47736153"/>
                            <ellipse id="Oval" fill="#002952" transform="translate(187.683419, 55.826828) rotate(-7.725490) translate(-187.683419, -55.826828) " cx="187.683419" cy="55.8268285" rx="1.5910375" ry="4.47736153"/>
                            <ellipse id="Oval" fill="#002952" transform="translate(199.774173, 60.304611) rotate(-7.725490) translate(-199.774173, -60.304611) " cx="199.774173" cy="60.3046114" rx="1.5910375" ry="4.47736153"/>
                            <path d="M143.794423,23.2578434 C140.301239,23.247577 136.815779,23.5883026 133.390015,24.2749397 C129.533702,25.0489564 125.531028,25.9764971 121.598352,27.1854984 C115.457524,26.8848473 110.939402,25.2856392 110.029414,22.8228588 C117.18841,18.6649179 125.925568,15.9846452 135.935436,14.6796914 C140.100904,14.1226311 144.312026,13.9940292 148.503452,14.2958815 C149.40092,14.8247423 150.030772,15.7139394 150.234338,16.7394714 C150.533425,18.9655946 148.007095,21.3323905 143.794423,23.2578434 Z" id="Path" fill="#002952"/>
                            <path d="M103.169504,85.4926495 L98.269569,65.0163896 C97.9122967,63.5058952 96.6880903,62.3585039 95.1641554,62.105831 C94.953598,62.0728899 94.7408894,62.0557842 94.5278002,62.0546563 C94.2276237,62.0557266 93.9286106,62.0922253 93.6369029,62.1634025 L91.7405642,62.6239744 C86.6567736,63.8599282 83.5279895,68.9997679 84.7470201,74.112685 L86.9424457,83.2985361 C87.4437189,85.4611199 88.6375901,87.3983952 90.3405827,88.8126374 C90.6165614,89.0365458 90.9055535,89.2437431 91.2060258,89.4331302 C93.3610117,90.7908129 95.9704075,91.2152982 98.4413849,90.6101473 L100.33136,90.1495754 C100.831093,90.0323596 101.301263,89.8123803 101.712251,89.5034953 C102.962248,88.5873631 103.537907,87.0029586 103.169504,85.4926495 Z" id="Path" fill="#0066CC"/>
                            <path d="M92.8972575,81.6827948 C93.751495,81.4761543 93.9773889,79.359509 93.4018057,76.9551352 C92.8262225,74.5507615 91.6671238,72.7691466 90.8128863,72.9757871 C89.9586489,73.1824276 89.732755,75.2990729 90.3083382,77.7034466 C90.8839214,80.1078204 92.0430201,81.8894352 92.8972575,81.6827948 Z" id="Oval" fill="#002952"/>
                            <path d="M86.533708,83.6018429 C87.3879455,83.3952024 87.6138394,81.2785571 87.0382562,78.8741834 C86.462673,76.4698096 85.3035743,74.6881948 84.4493368,74.8948353 C83.5950994,75.1014757 83.3692055,77.218121 83.9447887,79.6224948 C84.5203719,82.0268685 85.6794706,83.8084834 86.533708,83.6018429 Z" id="Oval" fill="#002952"/>
                            <path d="M103.481318,85.4158492 L98.5813831,64.9395893 C98.1910562,63.305426 96.8647141,62.0654013 95.2150639,61.7923478 L101.903157,89.7592982 C103.253838,88.7649438 103.876512,87.0512064 103.481318,85.4158492 L103.481318,85.4158492 Z" id="Path" fill="#002952"/>
                            <path d="M85.8542782,70.057087 C85.7190502,69.4876642 85.4652958,68.9535192 85.1097426,68.4898631 C84.4209458,70.28303 84.2943741,72.2451062 84.7470201,74.1126786 L86.9424457,83.2985297 C87.4437189,85.4611135 88.6375901,87.3983888 90.3405827,88.812631 L85.8542782,70.057087 Z" id="Path" fill="#002952"/>
                        </g>
                    </g>
                    <rect id="Rectangle" fill="#004080" x="0" y="291.34951" width="462.715468" height="4.98033351"/>
                </g>
                <g id="Group-7" opacity="0.74593099" transform="translate(298.088987, 352.821618)" fill-rule="nonzero">
                    <rect id="Rectangle" fill="#73BCF7" x="0" y="0" width="157.070939" height="14.7706774"/>
                    <rect id="Rectangle" fill="#2B9AF3" x="40.4255059" y="27.3209262" width="67.8260874" height="14.7706774"/>
                    <rect id="SVGID_00000098198498282565201720000006500919177504849079_" fill="#BEE1F4" x="123.638064" y="27.3209262" width="150.220794" height="14.7706774"/>
                    <rect id="Rectangle" fill="#0066CC" transform="translate(203.773204, 7.389297) rotate(-180.000000) translate(-203.773204, -7.389297) " x="176.324382" y="0.00395815539" width="54.897644" height="14.7706774"/>
                </g>
                <g id="Group-9" transform="translate(18.027875, 23.544676)">
                    <rect id="Rectangle" fill="#3C3F42" fill-rule="nonzero" x="7.50250976" y="8.45099594" width="160.737214" height="180.916664"/>
                    <g id="Group-6">
                        <g id="Group-8">
                            <mask id="mask-4" fill="white">
                                <use xlink:href="#path-3"/>
                            </mask>
                            <use id="Mask" fill="#FFFFFF" xlink:href="#path-3"/>
                            <g mask="url(#mask-4)" fill-rule="nonzero">
                                <g transform="translate(111.017468, 160.245457) rotate(4.000000) translate(-111.017468, -160.245457) translate(-4.160625, 14.011063)">
                                    <path d="M103.225516,104.482828 C101.114563,103.977181 98.8882817,104.433446 97.1457195,105.728851 C95.4031572,107.024256 94.323315,109.025735 94.1967566,111.194728 L78.3677454,116.708909 L79.3692946,127.154918 L101.613666,119.053546 C105.350006,119.024241 108.473939,116.202229 108.885167,112.484817 C109.296396,108.767405 106.864935,105.329631 103.225516,104.482796 L103.225516,104.482828 Z" id="Path" fill="#FFB6B6"/>
                                    <path d="M77.4280462,134.844761 C71.1340431,139.235875 60.0456981,141.482219 44.9545438,141.379231 C43.2653275,141.383799 41.6515429,140.67939 40.5054491,139.437225 C36.4674407,135.228168 36.6251368,125.620175 36.6503315,124.692132 L32.2243293,107.995913 C32.1294456,107.740587 29.6796312,100.889813 32.1719644,96.1058924 C33.2451286,94.0836512 35.1479249,92.6321527 37.3804509,92.1327344 C46.7405528,89.6464977 55.5393819,114.726162 56.6575079,118.040115 L69.7930467,115.800983 L78.8643694,115.427521 L88.0935212,110.328234 L93.2897048,122.776398 L80.4306043,132.18292 C79.5434019,133.190906 78.5348692,134.084995 77.4280462,134.844761 Z" id="Path" fill="#004080"/>
                                    <polygon id="Path" fill="#FFB6B6" points="102.773254 272.898876 112.449039 273.351419 118.797408 236.209286 104.51706 235.541246"/>
                                    <path d="M100.59699,268.008507 L115.935038,267.81068 L115.628574,274.370326 L129.700602,285.103965 C131.127271,286.191892 131.681399,288.082076 131.068259,289.769174 C130.455119,291.456271 128.817193,292.54823 127.025656,292.464263 L108.815962,291.611847 L105.980383,284.976448 L104.451728,291.407575 L97.5859473,291.08618 L100.59699,268.008507 Z" id="Path" fill="#2F2E41"/>
                                    <polygon id="Path" fill="#FFB6B6" points="203.795013 193.149866 207.319985 184.118651 174.197152 166.211505 157.464458 176.739155"/>
                                    <path d="M198.470007,193.648855 L203.191437,179.039868 L209.301897,181.429797 L223.964533,171.519836 C225.450809,170.515022 227.417174,170.594431 228.817755,171.715826 C230.218335,172.83722 230.727658,174.740006 230.074823,176.412126 L223.440321,193.408285 L216.252582,193.973824 L221.850266,197.481674 L219.348802,203.889907 L198.470007,193.648855 Z" id="Path" fill="#2F2E41"/>
                                    <path d="M13.5110145,166.271368 C13.5110145,166.271368 17.5295269,191.950811 36.5252447,193.852253 C55.5209624,195.753694 73.0309301,187.18723 73.0309301,187.18723 L126.21894,170.790424 C126.21894,170.790424 182.792271,186.880299 192.29013,189.415555 C192.29013,189.415555 198.841411,174.530909 198.622036,173.570205 C196.60193,164.723525 193.970333,170.708066 193.970333,170.708066 L133.817227,144.087879 C133.817227,144.087879 124.319368,141.552623 107.856413,148.524577 C91.3934573,155.496531 47.2894847,172.302596 47.2894847,172.302596 L13.5110145,166.271368 Z" id="Path" fill="#2F2E41"/>
                                    <path d="M13.7303834,164.696829 C13.7303834,164.696829 10.5624169,195.459953 29.0665255,200.159646 C46.6562942,204.627109 70.9192585,200.044292 70.9192585,200.044292 L99.8443038,197.021348 C99.8443038,197.021348 101.110685,234.223382 101.110685,252.603987 C106.987525,253.403448 112.909328,253.82685 118.840022,253.871615 C120.106403,253.871615 120.190408,253.207435 120.190408,253.207435 L122.642565,188.910975 C122.990834,183.258107 120.936241,177.721182 116.98581,173.66658 C113.035378,169.611978 107.557077,167.41737 101.902819,167.624333 C100.537394,167.676483 99.1050264,167.7733 97.6057155,167.914785 C79.8116099,169.62273 57.7207615,165.991856 57.7207615,165.991856 L13.7303834,164.696829 Z" id="Path" fill="#2F2E41"/>
                                    <path d="M65.055711,120.068954 C65.055711,120.068954 72.5678272,165.54124 67.4911646,169.171156 C62.4145021,172.801072 55.4525842,172.815282 55.4525842,172.815282 L53.8337438,147.708307 L65.055711,120.068954 Z" id="Path" fill="#004080"/>
                                    <path d="M52.5267118,64.2227361 L62.5708052,73.7764296 C72.1631165,82.9004039 74.5413057,97.2884396 68.395994,109.0188 L63.594744,118.18356 L52.5267118,64.2227361 Z" id="Path" fill="#004080"/>
                                    <path d="M50.2806138,65.8291186 L63.8902984,81.346184 C66.8772192,84.7517138 68.728207,89.0052503 69.1852407,93.5138658 L69.1852407,93.5138658 C69.3927691,95.5611457 69.3093267,97.6275365 68.9374036,99.6513717 L63.8084142,127.560888 L59.9532966,167.865899 C59.9532966,167.865899 30.1912302,176.892424 27.144925,162.954018 C24.0986197,149.015612 50.2806138,65.8291186 50.2806138,65.8291186 Z" id="Path" fill="#0066CC"/>
                                    <path d="M37.50581,171.65385 C17.9413858,168.390291 13.1488105,167.742292 12.8503181,167.628161 L12.5512622,167.513942 L14.5122535,155.735111 L22.7929301,135.367543 C23.3306988,128.705106 26.8184772,119.677916 24.8231734,112.427122 C19.0226663,91.3483706 28.4466699,61.5616934 32.756374,59.2798427 L44.7041486,51.4395639 L48.8981181,55.288507 L56.1699891,65.4783216 C62.1530577,92.156344 66.2853228,117.021887 66.0843734,118.541722 L62.3916059,144.659098 L58.0403202,154.677453 C44.8397463,161.053032 53.7162933,174.357941 37.50581,171.65385 Z" id="Path" fill="#004080"/>
                                    <path d="M72.9266879,152.493527 L103.645372,144.266697 L106.350109,143.62472 L108.278687,143.166238 L110.526229,142.634284 L110.544186,142.630145 C110.870771,142.555557 111.213561,142.612667 111.498405,142.789118 L122.904491,156.478011 C123.00771,156.541598 123.098611,156.623319 123.172818,156.71924 C123.203472,156.744066 123.230751,156.772797 123.253962,156.804704 C123.510296,157.154687 123.575753,157.609438 123.42855,158.017622 C123.281348,158.425805 122.940803,158.733851 122.520246,158.839247 L76.6943429,169.395564 C76.209704,169.505363 75.7051257,169.326985 75.3968658,168.936879 L74.9318253,168.333774 L72.3958969,156.110132 L72.2154693,154.522897 C72.1004086,154.376083 72.0192168,154.205609 71.9777125,154.023693 C71.8243241,153.339954 72.2464729,152.659264 72.9266879,152.493527 L72.9266879,152.493527 Z" id="Path" fill="#E6E6E6"/>
                                    <path d="M74.9315973,168.332703 L75.3993732,168.937773 C75.7069639,169.326753 76.20996,169.504989 76.6935324,169.396357 L122.521031,158.839678 C122.941544,158.73473 123.282113,158.426843 123.429105,158.018744 C123.576096,157.610645 123.510163,157.156053 123.253303,156.806643 C123.23114,156.774169 123.204167,156.745261 123.173312,156.720914 L74.9315973,168.332703 Z" id="Path" fill="#000000" opacity="0.17"/>
                                    <path d="M110.297527,142.544923 L109.468491,84.0661586 C109.433738,83.714074 109.54008,83.3625846 109.76414,83.0889569 L115.636286,70.8555359 L116.246232,70.1137074 C116.47298,69.8423605 116.796981,69.6708279 117.148668,69.6359384 L118.426795,69.516699 C119.159972,69.4445673 119.812749,69.9810272 119.884824,70.7149243 L119.884824,70.7149243 L121.035876,132.590158 L121.036908,132.594664 L121.607191,138.552326 L122.282875,145.62683 L122.284939,145.63583 L123.339689,156.64291 C123.379742,157.023833 123.250817,157.403167 122.987002,157.680609 C122.72986,157.961623 122.364338,158.118273 121.983712,158.110853 L121.152066,158.093824 C120.833092,158.085548 120.527273,157.964838 120.288502,157.752966 L119.823341,157.33456 L119.60786,157.137976 L110.738557,143.414002 C110.486721,143.190807 110.329064,142.880132 110.297527,142.544923 L110.297527,142.544923 Z" id="Path" fill="#E6E6E6"/>
                                    <path d="M115.638433,70.8554852 L119.606898,157.140308 L119.823873,157.334255 L120.287489,157.751457 C120.526081,157.96387 120.832161,158.084764 121.15137,158.092671 L121.984186,158.109611 C122.365188,158.11581 122.730871,157.959448 122.989676,157.679488 C123.24848,157.399528 123.375902,157.022476 123.340037,156.642739 L119.883235,70.716794 C119.812689,69.9824882 119.161082,69.444284 118.427447,69.5143665 L117.146788,69.6371807 C116.795516,69.6695874 116.471949,69.841807 116.248689,70.1151968 L115.638433,70.8554852 Z" id="Path" fill="#000000" opacity="0.17"/>
                                    <polygon id="Path" fill="#0066CC" points="115.972111 74.3420705 110.602022 87.6109661 111.266239 127.304834 117.080195 135.72125"/>
                                    <path d="M76.4669262,152.143344 C75.8549506,152.318022 75.5001168,152.956016 75.6741716,153.568722 L78.0399932,163.43796 L80.2567428,162.806143 L77.8909148,152.936898 C77.7164174,152.324306 77.07904,151.969111 76.4669262,152.143344 Z" id="Path" fill="#2F2E41"/>
                                    <path d="M80.9004191,150.879684 C80.2884444,151.054359 79.93361,151.692351 80.1076645,152.305056 L80.6126213,154.080204 L82.8293709,153.44838 L82.3244077,151.673238 C82.1499162,151.060641 81.5125337,150.705444 80.9004191,150.879684 Z" id="Path" fill="#2F2E41"/>
                                    <path d="M85.333931,149.616055 C84.721953,149.79073 84.3671178,150.428726 84.5411763,151.041433 L85.0461332,152.816575 L87.2628828,152.184751 L86.7579196,150.40961 C86.5834222,149.797017 85.9460447,149.441823 85.333931,149.616055 Z" id="Path" fill="#2F2E41"/>
                                    <path d="M89.7674048,148.352414 C89.1554278,148.527086 88.800592,149.16508 88.9746502,149.777786 L89.479607,151.552934 L91.6963567,150.92111 L91.1913935,149.145968 C91.016899,148.533374 90.379519,148.178178 89.7674048,148.352414 Z" id="Path" fill="#2F2E41"/>
                                    <path d="M94.2008977,147.088767 C93.5889198,147.263441 93.2340845,147.901437 93.4081431,148.514145 L93.9130999,150.289286 L96.1298495,149.657463 L95.6248864,147.882321 C95.4503889,147.269729 94.8130115,146.914534 94.2008977,147.088767 L94.2008977,147.088767 Z" id="Path" fill="#2F2E41"/>
                                    <path d="M98.6343906,145.825125 C98.0224127,145.9998 97.6675774,146.637796 97.841636,147.250503 L98.3465928,149.025645 L100.563342,148.393821 L100.058379,146.618679 C99.8838848,146.006085 99.2465048,145.650889 98.6343906,145.825125 Z" id="Path" fill="#2F2E41"/>
                                    <path d="M103.067877,144.561484 C102.4559,144.736156 102.101064,145.37415 102.275123,145.986856 L102.780079,147.761997 L104.996829,147.13018 L104.491866,145.355032 C104.317369,144.74244 103.679989,144.387247 103.067877,144.561484 Z" id="Path" fill="#2F2E41"/>
                                    <path d="M107.50137,143.297837 C106.889392,143.472511 106.534557,144.110507 106.708615,144.723214 L107.213572,146.498356 L109.430322,145.866532 L108.925359,144.091391 C108.750861,143.478798 108.113484,143.123604 107.50137,143.297837 L107.50137,143.297837 Z" id="Path" fill="#2F2E41"/>
                                    <path d="M81.8308483,154.926751 C81.2188728,155.101429 80.8640389,155.739422 81.0380937,156.352129 L81.5430569,158.127271 L83.7598001,157.495447 L83.2548433,155.720305 C83.0803459,155.10771 82.4429641,154.752514 81.8308483,154.926751 Z" id="Path" fill="#2F2E41"/>
                                    <path d="M86.2643412,153.663103 C85.652368,153.837784 85.2975355,154.475775 85.4715866,155.088481 L85.9765498,156.863623 L88.193293,156.231806 L87.6883362,154.456658 C87.5138359,153.844065 86.8764565,153.48887 86.2643412,153.663103 Z" id="Path" fill="#2F2E41"/>
                                    <path d="M90.6978341,152.399462 C90.0858585,152.57414 89.7310247,153.212133 89.9050795,153.82484 L90.4100426,155.599982 L92.6267859,154.968158 L92.1218291,153.193016 C91.9473317,152.580421 91.3099499,152.225225 90.6978341,152.399462 Z" id="Path" fill="#2F2E41"/>
                                    <path d="M95.131327,151.135821 C94.5193369,151.310479 94.1644826,151.948476 94.3385344,152.561193 L94.8434975,154.336334 L97.0602408,153.704517 L96.555284,151.929369 C96.3807833,151.316795 95.7434287,150.961608 95.131327,151.135821 Z" id="Path" fill="#2F2E41"/>
                                    <path d="M99.5648198,149.872173 C98.9528443,150.046851 98.5980104,150.684845 98.7720652,151.297551 L99.2770284,153.072693 L101.493772,152.440869 L100.988815,150.665727 C100.814317,150.053132 100.176936,149.697936 99.5648198,149.872173 Z" id="Path" fill="#2F2E41"/>
                                    <path d="M103.998313,148.608532 C103.386338,148.783207 103.031504,149.421199 103.205558,150.033904 L103.710521,151.809045 L105.927265,151.177228 L105.422308,149.40208 C105.247808,148.789487 104.610427,148.434295 103.998313,148.608532 Z" id="Path" fill="#2F2E41"/>
                                    <path d="M108.431806,147.344904 C107.81983,147.519581 107.464996,148.157575 107.639051,148.770281 L108.144014,150.545423 L110.360757,149.913599 L109.855801,148.138458 C109.681303,147.525862 109.043921,147.170667 108.431806,147.344904 Z" id="Path" fill="#2F2E41"/>
                                    <path d="M82.7612776,158.973799 C82.1492997,159.148474 81.7944644,159.78647 81.968523,160.399177 L82.4734798,162.174319 L84.6902294,161.542495 L84.1852662,159.767353 C84.0107717,159.154759 83.3733918,158.799562 82.7612776,158.973799 Z" id="Path" fill="#2F2E41"/>
                                    <path d="M87.1947768,157.710158 C86.5827997,157.88483 86.2279639,158.522824 86.4020222,159.135529 L86.906979,160.910671 L89.1237286,160.278854 L88.6187654,158.503706 C88.4442711,157.891111 87.8068895,157.535917 87.1947768,157.710158 L87.1947768,157.710158 Z" id="Path" fill="#2F2E41"/>
                                    <path d="M91.6282697,156.44651 C91.0162917,156.621185 90.6614565,157.259181 90.835515,157.871888 L91.3404719,159.64703 L93.5572215,159.015206 L93.0522583,157.240064 C92.8777638,156.62747 92.2403839,156.272274 91.6282697,156.44651 Z" id="Path" fill="#2F2E41"/>
                                    <path d="M96.0617625,155.182869 C95.4497855,155.357541 95.0949497,155.995535 95.2690079,156.608241 L95.7739648,158.383382 L97.9907144,157.751565 L97.4857512,155.976423 C97.3112597,155.363826 96.6738772,155.008629 96.0617625,155.182869 Z" id="Path" fill="#2F2E41"/>
                                    <path d="M100.495255,153.919221 C99.8832775,154.093896 99.5284423,154.731892 99.7025008,155.344599 L100.207458,157.119741 L102.424207,156.487917 L101.919244,154.712775 C101.74475,154.100181 101.10737,153.744985 100.495255,153.919221 Z" id="Path" fill="#2F2E41"/>
                                    <path d="M104.928742,152.65558 C104.316765,152.830252 103.961929,153.468246 104.135987,154.080952 L104.640944,155.8561 L106.857694,155.224276 L106.352693,153.449166 C106.178211,152.836578 105.540854,152.48137 104.928742,152.65558 L104.928742,152.65558 Z" id="Path" fill="#2F2E41"/>
                                    <path d="M109.362248,151.391933 C108.750272,151.56661 108.395438,152.204604 108.569493,152.81731 L109.07445,154.592452 L111.291199,153.960628 L110.786236,152.185487 C110.611739,151.572894 109.974361,151.2177 109.362248,151.391933 L109.362248,151.391933 Z" id="Path" fill="#2F2E41"/>
                                    <path d="M96.3366812,143.733102 C95.1329802,141.92511 93.1910622,140.743669 91.0334591,140.506682 C88.875856,140.269694 86.7242029,141.001504 85.1574671,142.505195 L69.8076164,135.76902 L63.4430189,144.107863 L85.2534524,153.315875 C88.0120909,155.83844 92.2196275,155.896995 95.0472586,153.45217 C97.8748898,151.007346 98.4288412,146.831918 96.3366812,143.733102 Z" id="Path" fill="#FFB6B6"/>
                                    <path d="M56.7943594,148.422711 C49.1968384,147.355773 39.5425751,141.452234 28.5508297,131.101158 C27.3095338,129.95431 26.6053265,128.339145 26.6093787,126.64826 C26.5098665,120.813552 33.1547015,113.878309 33.8038295,113.215206 L41.9057311,97.9632652 C42.0096946,97.7115016 44.8695253,91.0218297 49.9473719,89.2122717 C52.1082417,88.4606944 54.4893735,88.6923707 56.4651952,89.8464343 C65.015668,94.3973581 54.4219399,118.771803 52.9894728,121.962245 L64.1393892,129.26498 L71.0424331,135.167917 L81.2726528,137.714322 L76.6221149,150.376867 L60.8041148,148.515989 C59.4688096,148.650755 58.1219686,148.619424 56.7943594,148.422711 L56.7943594,148.422711 Z" id="Path" fill="#004080"/>
                                    <ellipse id="Oval" fill="#FFB6B6" transform="translate(52.845444, 30.785975) rotate(-83.167730) translate(-52.845444, -30.785975) " cx="52.8454437" cy="30.7859749" rx="19.5097015" ry="19.0661346"/>
                                    <path d="M44.4836843,1.56902681 C64.0879036,-3.09478334 58.6474423,3.53406562 62.0225508,9.74709049 C66.097481,6.78421486 71.7424328,7.34121086 75.1609959,11.0434809 C78.4040398,14.728412 78.4675172,21.009388 75.3003738,24.8336504 C72.1332305,28.6579128 66.1636489,29.5081299 62.1939618,26.700391 L60.5278664,27.9022354 C61.0185891,30.9609076 58.962328,34.2577924 56.0753525,35.0407808 C53.7343455,35.6758244 50.5999381,35.1474771 49.4835915,37.3928645 C48.7034627,38.9617886 49.5854845,40.8420801 50.5957527,42.2407745 C51.6057361,43.6393991 52.8284271,45.1052587 52.7592194,46.8647643 C52.6551418,49.5196209 49.7199045,51.0361159 47.1857238,51.2949212 C41.0750547,51.9190378 34.8026623,48.3689063 32.0021553,42.7010375 C31.9481948,42.5917426 31.8884786,42.4816217 31.8230067,42.3706746 C28.5300002,36.9262001 27.6198081,30.3653856 29.3061501,24.2287574 C29.6444955,23.0369653 28.2291824,21.1990404 28.7559075,21.7218964 C32.0361866,24.9780799 52.0685098,45.030125 48.0620451,69.0925792 C44.0555805,93.1550334 40.0491159,79.1186018 26.0264897,71.0977837 C12.0038635,63.0769657 24.8794649,6.23283695 44.4836843,1.56902681 Z" id="Path" fill="#2F2E41"/>
                                    <polygon id="Path" fill="#2F2E41" points="0.311814707 143.286593 0.321375885 143.273676 0.311814707 143.299618"/>
                                </g>
                            </g>
                        </g>
                        <rect id="Rectangle-Copy-3" stroke="#0066CC" stroke-width="2.1932" x="0" y="0" width="160.737214" height="180.916664"/>
                    </g>
                </g>
                <g id="undraw_server_re_twwj" transform="translate(238.368575, 67.656201)" fill-rule="nonzero">
                    <path d="M210.188638,82.2078428 L6.14586661,82.2078428 C2.75322683,82.2038617 0.00392863028,79.4178814 0,75.9799759 L0,6.22786688 C0.00393538876,2.78996417 2.75322964,0.00398789607 6.14586661,0 L210.188638,0 C213.581297,0.00393310541 216.330623,2.78994144 216.334505,6.22786688 L216.334505,75.9799759 C216.330623,79.4179013 213.581297,82.2039096 210.188638,82.2078428 L210.188638,82.2078428 Z" id="Path" fill="#212427"/>
                    <rect id="Rectangle" fill="#FFFFFF" x="32.0495562" y="18.045624" width="54.0836262" height="6.01520801"/>
                    <ellipse id="Oval" fill="#0066CC" cx="156.241587" cy="22.0557627" rx="4.00619453" ry="4.01013867"/>
                    <ellipse id="Oval" fill="#FFFFFF" cx="168.26017" cy="22.0557627" rx="4.00619453" ry="4.01013867"/>
                    <ellipse id="Oval" fill="#FFFFFF" cx="182.281851" cy="22.0557627" rx="4.00619453" ry="4.01013867"/>
                    <path d="M210.188638,168.425824 L6.14586661,168.425824 C2.75322683,168.421843 0.00392863028,165.635863 0,162.197957 L0,92.4458483 C0.00393538876,89.0079456 2.75322964,86.2219693 6.14586661,86.2179814 L210.188638,86.2179814 C213.581297,86.2219145 216.330623,89.0079229 216.334505,92.4458483 L216.334505,162.197957 C216.330623,165.635883 213.581297,168.421891 210.188638,168.425824 L210.188638,168.425824 Z" id="Path" fill="#4F5255"/>
                    <rect id="Rectangle" fill="#FFFFFF" x="32.0495562" y="106.268675" width="54.0836262" height="6.01520801"/>
                    <ellipse id="Oval" fill="#0066CC" cx="156.241587" cy="110.278813" rx="4.00619453" ry="4.01013867"/>
                    <ellipse id="Oval" fill="#FFFFFF" cx="168.26017" cy="110.278813" rx="4.00619453" ry="4.01013867"/>
                    <ellipse id="Oval" fill="#FFFFFF" cx="182.281851" cy="110.278813" rx="4.00619453" ry="4.01013867"/>
                    <path d="M210.188638,256.648875 L6.14586661,256.648875 C2.75322683,256.644894 0.00392863028,253.858914 0,250.421008 L0,180.668899 C0.00393538876,177.230996 2.75322964,174.44502 6.14586661,174.441032 L210.188638,174.441032 C213.581297,174.444965 216.330623,177.230974 216.334505,180.668899 L216.334505,250.421008 C216.330623,253.858933 213.581297,256.644942 210.188638,256.648875 L210.188638,256.648875 Z" id="Path" fill="#3C3F42"/>
                    <rect id="Rectangle" fill="#FFFFFF" x="32.0495562" y="192.486656" width="54.0836262" height="6.01520801"/>
                    <ellipse id="Oval" fill="#0066CC" cx="156.241587" cy="196.496795" rx="4.00619453" ry="4.01013867"/>
                    <ellipse id="Oval" fill="#FFFFFF" cx="168.26017" cy="196.496795" rx="4.00619453" ry="4.01013867"/>
                    <ellipse id="Oval" fill="#FFFFFF" cx="182.281851" cy="196.496795" rx="4.00619453" ry="4.01013867"/>
                </g>
            </g>
        </g>
    </g>
</svg>